<?xml version="1.0" standalone="no"?>
<!DOCTYPE svg PUBLIC "-//W3C//DTD SVG 20010904//EN"
 "http://www.w3.org/TR/2001/REC-SVG-20010904/DTD/svg10.dtd">
<svg version="1.0" xmlns="http://www.w3.org/2000/svg"
 width="474.000000pt" height="444.000000pt" viewBox="0 0 474.000000 444.000000"
 preserveAspectRatio="xMidYMid meet">

<g transform="translate(0.000000,444.000000) scale(0.100000,-0.100000)"
fill="#000000" stroke="none">
<path d="M2504 4075 c11 -8 24 -15 30 -15 5 0 1 7 -10 15 -10 8 -23 14 -29 14
-5 0 -1 -6 9 -14z"/>
<path d="M2550 4046 c0 -2 7 -7 16 -10 8 -3 12 -2 9 4 -6 10 -25 14 -25 6z"/>
<path d="M2592 4006 c7 -8 15 -12 17 -11 5 6 -10 25 -20 25 -5 0 -4 -6 3 -14z"/>
<path d="M2627 3956 c10 -13 19 -23 21 -21 5 5 -22 45 -31 45 -4 0 0 -11 10
-24z"/>
<path d="M1814 3858 c2 -9 -2 -22 -10 -28 -8 -7 -14 -17 -14 -23 0 -5 8 -1 18
10 9 11 22 18 29 16 6 -2 15 1 19 8 5 9 2 10 -9 6 -10 -4 -21 1 -27 11 -10 15
-11 15 -6 0z"/>
<path d="M1876 3842 c-4 -7 -1 -12 6 -12 7 0 21 -12 30 -27 10 -16 18 -23 18
-16 0 21 -46 68 -54 55z"/>
<path d="M1750 3806 c0 -2 7 -7 16 -10 8 -3 12 -2 9 4 -6 10 -25 14 -25 6z"/>
<path d="M3236 3788 c-62 -17 -121 -83 -137 -152 -22 -99 23 -200 105 -237 23
-10 64 -19 94 -19 128 0 214 84 214 212 0 140 -134 236 -276 196z m161 -53
c79 -47 104 -140 61 -225 -84 -165 -328 -105 -328 81 0 53 25 104 66 135 66
51 125 53 201 9z"/>
<path d="M3272 3698 c-7 -7 -12 -21 -12 -31 0 -15 4 -17 18 -11 9 4 29 7 45 7
32 0 36 21 8 37 -26 13 -44 13 -59 -2z"/>
<path d="M3222 3544 c-43 -30 -18 -68 56 -85 67 -15 145 28 123 69 -10 18 -58
39 -67 29 -3 -2 -8 -24 -13 -48 l-9 -44 -2 45 -3 45 -6 -45 -7 -45 -8 48 c-9
52 -24 59 -64 31z"/>
<path d="M1777 3773 c-8 -13 15 -62 35 -74 7 -5 20 -9 28 -8 8 0 3 6 -12 15
-17 8 -31 27 -36 46 -5 18 -11 28 -15 21z"/>
<path d="M1905 3720 c-10 -11 -25 -20 -33 -20 -9 0 -12 -3 -9 -7 9 -9 55 16
61 33 7 19 2 17 -19 -6z"/>
<path d="M1370 3680 c0 -22 5 -40 10 -40 6 0 10 18 10 40 0 22 -4 40 -10 40
-5 0 -10 -18 -10 -40z"/>
<path d="M2651 3684 c0 -11 3 -14 6 -6 3 7 2 16 -1 19 -3 4 -6 -2 -5 -13z"/>
<path d="M2902 3670 c-12 -16 -22 -31 -22 -34 0 -4 -54 -89 -67 -105 -2 -3
-16 10 -31 27 -44 49 -58 38 -16 -13 20 -25 40 -45 45 -45 5 0 21 19 35 43 15
23 42 66 61 94 18 29 33 55 33 58 0 14 -19 2 -38 -25z"/>
<path d="M1180 3632 c0 -14 49 -56 57 -49 3 4 -4 18 -17 32 -24 25 -40 32 -40
17z"/>
<path d="M1535 3610 c-16 -16 -23 -30 -16 -30 14 0 61 40 61 53 0 15 -17 6
-45 -23z"/>
<path d="M2614 3615 c-9 -14 -15 -27 -13 -30 3 -2 12 10 21 26 21 36 15 39 -8
4z"/>
<path d="M2564 3548 l-19 -23 23 19 c12 11 22 21 22 23 0 8 -8 2 -26 -19z"/>
<path d="M2458 3493 c7 -3 16 -2 19 1 4 3 -2 6 -13 5 -11 0 -14 -3 -6 -6z"/>
<path d="M1100 3440 c0 -5 18 -10 40 -10 22 0 40 5 40 10 0 6 -18 10 -40 10
-22 0 -40 -4 -40 -10z"/>
<path d="M1580 3440 c0 -5 18 -10 40 -10 22 0 40 5 40 10 0 6 -18 10 -40 10
-22 0 -40 -4 -40 -10z"/>
<path d="M3020 3389 l-42 -51 33 -34 c18 -19 38 -34 45 -34 7 0 32 20 57 45
l44 45 -38 40 c-21 22 -42 40 -47 40 -5 0 -28 -23 -52 -51z"/>
<path d="M3820 3356 c0 -2 7 -7 16 -10 8 -3 12 -2 9 4 -6 10 -25 14 -25 6z"/>
<path d="M3900 3306 c0 -2 7 -7 16 -10 8 -3 12 -2 9 4 -6 10 -25 14 -25 6z"/>
<path d="M1200 3275 c-32 -34 -19 -43 14 -10 14 14 26 28 26 30 0 12 -19 3
-40 -20z"/>
<path d="M1537 3268 c18 -18 36 -29 39 -25 10 10 -36 57 -55 57 -11 0 -6 -10
16 -32z"/>
<path d="M3744 3278 c-3 -5 -36 -8 -74 -8 -77 0 -90 -9 -82 -61 l4 -29 154 0
c153 0 154 0 155 23 2 30 -2 61 -8 67 -8 9 -145 16 -149 8z m-74 -53 c0 -8 -7
-15 -15 -15 -16 0 -20 12 -8 23 11 12 23 8 23 -8z"/>
<path d="M3945 3257 c10 -15 20 -25 23 -22 3 3 -5 16 -17 28 l-23 22 17 -28z"/>
<path d="M780 3240 c8 -5 20 -10 25 -10 6 0 3 5 -5 10 -8 5 -19 10 -25 10 -5
0 -3 -5 5 -10z"/>
<path d="M1878 3210 c-46 -14 -85 -48 -107 -93 -25 -52 -27 -102 -5 -157 15
-37 15 -45 1 -81 -17 -44 -15 -45 32 -20 32 17 38 17 70 4 49 -21 124 -11 172
23 66 45 93 134 65 209 -35 91 -136 143 -228 115z m-5 -174 c8 -20 -20 -43
-35 -28 -14 14 -3 42 16 42 7 0 16 -6 19 -14z m83 3 c10 -17 -23 -46 -37 -32
-7 7 -9 19 -6 27 7 18 33 21 43 5z m82 -12 c4 -20 -25 -34 -40 -19 -15 15 -1
44 19 40 10 -2 19 -11 21 -21z"/>
<path d="M603 3143 c-144 -6 -90 -22 85 -25 92 -2 170 -2 174 0 4 1 5 9 1 17
-5 15 -43 16 -260 8z"/>
<path d="M910 3121 c0 -6 4 -13 10 -16 6 -3 7 1 4 9 -7 18 -14 21 -14 7z"/>
<path d="M3666 3122 c-3 -6 1 -12 9 -16 10 -3 15 -19 15 -46 0 -24 4 -39 10
-35 5 3 8 27 7 53 -1 34 -6 48 -19 50 -9 2 -19 -1 -22 -6z"/>
<path d="M3768 3123 c25 -5 27 -18 7 -53 -17 -29 -19 -54 -5 -45 8 5 50 90 50
101 0 2 -17 3 -37 3 -24 -1 -29 -3 -15 -6z"/>
<path d="M761 3010 c1 -62 4 -80 15 -80 11 0 14 18 14 80 0 64 -3 80 -15 80
-12 0 -15 -15 -14 -80z"/>
<path d="M2985 3056 c-62 -27 -72 -101 -21 -152 34 -34 34 -34 130 -34 l96 0
0 -65 c0 -62 1 -65 19 -53 29 18 51 -5 51 -55 0 -32 -6 -46 -34 -72 -30 -28
-33 -35 -23 -49 7 -10 29 -21 50 -25 30 -7 42 -5 62 11 l25 20 -2 206 -3 207
-77 6 c-99 8 -120 14 -164 44 -41 28 -65 30 -109 11z"/>
<path d="M713 2995 c0 -38 2 -53 4 -32 2 20 2 52 0 70 -2 17 -4 1 -4 -38z"/>
<path d="M650 2964 c0 -27 4 -43 10 -39 6 3 10 24 10 46 0 21 -4 39 -10 39 -5
0 -10 -21 -10 -46z"/>
<path d="M3950 2991 c-6 -12 -7 -21 -1 -21 10 0 24 30 17 37 -2 3 -9 -5 -16
-16z"/>
<path d="M592 2950 c0 -14 2 -19 5 -12 2 6 2 18 0 25 -3 6 -5 1 -5 -13z"/>
<path d="M1210 2779 l0 -190 48 3 47 3 -4 40 c-3 22 -5 56 -5 75 -1 32 2 35
30 38 l32 3 -6 65 -5 64 85 0 c112 0 148 7 148 31 0 9 -12 27 -26 38 -24 19
-40 21 -185 21 l-159 0 0 -191z"/>
<path d="M3768 2953 c6 -2 18 -2 25 0 6 3 1 5 -13 5 -14 0 -19 -2 -12 -5z"/>
<path d="M2587 2914 c-14 -15 -6 -34 14 -34 14 0 19 5 17 17 -3 18 -20 27 -31
17z"/>
<path d="M2667 2914 c-14 -15 -6 -34 14 -34 14 0 19 5 17 17 -3 18 -20 27 -31
17z"/>
<path d="M2747 2914 c-14 -15 -6 -34 14 -34 14 0 19 5 17 17 -3 18 -20 27 -31
17z"/>
<path d="M910 2889 c-7 -11 -10 -23 -7 -25 2 -2 9 7 15 21 14 30 7 33 -8 4z"/>
<path d="M520 2882 c0 -10 38 -12 170 -10 94 2 169 7 168 12 -2 4 -78 9 -170
10 -130 1 -168 -2 -168 -12z"/>
<path d="M3816 2881 c-4 -5 3 -7 14 -4 23 6 26 13 6 13 -8 0 -17 -4 -20 -9z"/>
<path d="M3853 2814 c-86 -43 -99 -171 -23 -231 8 -7 32 -18 53 -23 51 -15 97
1 137 46 24 28 30 44 30 82 0 108 -102 173 -197 126z m112 -8 c98 -41 99 -183
1 -226 -24 -11 -52 -17 -63 -14 -58 19 -75 30 -94 61 -38 61 -11 150 54 178
41 18 60 18 102 1z"/>
<path d="M3955 2720 c-16 -11 -25 -20 -20 -20 6 0 24 9 40 20 17 11 26 20 20
20 -5 0 -23 -9 -40 -20z"/>
<path d="M3860 2727 c0 -3 12 -12 26 -22 15 -9 23 -12 20 -6 -7 11 -46 35 -46
28z"/>
<path d="M1450 2765 c0 -8 7 -15 15 -15 8 0 15 7 15 15 0 8 -7 15 -15 15 -8 0
-15 -7 -15 -15z"/>
<path d="M3055 2770 c-8 -14 3 -30 21 -30 8 0 14 9 14 20 0 21 -24 28 -35 10z"/>
<path d="M2250 2690 c0 -6 32 -10 75 -10 43 0 75 4 75 10 0 6 -32 10 -75 10
-43 0 -75 -4 -75 -10z"/>
<path d="M2135 2669 c-10 -14 -1 -21 19 -13 9 3 13 10 10 15 -7 12 -21 11 -29
-2z"/>
<path d="M516 2611 c-11 -17 6 -41 28 -40 19 0 19 1 -4 10 -24 10 -24 11 -6
25 17 12 17 14 4 14 -9 0 -19 -4 -22 -9z"/>
<path d="M2110 2590 c-10 -19 -8 -20 40 -20 44 0 51 3 48 17 -4 23 -38 30 -38
9 0 -9 -4 -16 -10 -16 -5 0 -10 7 -10 15 0 21 -17 19 -30 -5z"/>
<path d="M4173 2580 c-46 -27 -67 -66 -68 -119 0 -53 22 -82 80 -107 32 -13
45 -14 81 -4 41 12 44 11 76 -19 18 -17 38 -31 44 -31 25 0 22 29 -5 52 -40
33 -43 43 -31 88 28 103 -88 195 -177 140z m125 -56 c45 -51 12 -130 -58 -139
-30 -4 -40 0 -68 31 -19 21 -31 43 -28 52 2 10 7 27 11 40 15 54 101 64 143
16z"/>
<path d="M844 2523 c-8 -13 -5 -25 13 -51 13 -19 23 -44 23 -56 0 -15 7 -21
24 -22 14 -1 27 4 30 12 12 30 -40 134 -67 134 -7 0 -17 -8 -23 -17z"/>
<path d="M2100 2530 c0 -6 57 -10 150 -10 93 0 150 4 150 10 0 6 -57 10 -150
10 -93 0 -150 -4 -150 -10z"/>
<path d="M3712 2428 c-19 -19 -14 -24 23 -24 19 0 35 3 35 6 0 10 -23 30 -35
30 -6 0 -16 -5 -23 -12z"/>
<path d="M3987 2434 c-14 -14 -6 -21 23 -20 16 1 28 6 27 11 -4 12 -40 19 -50
9z"/>
<path d="M2173 2413 c42 -2 112 -2 155 0 42 1 7 3 -78 3 -85 0 -120 -2 -77 -3z"/>
<path d="M3853 2413 c15 -2 37 -2 50 0 12 2 0 4 -28 4 -27 0 -38 -2 -22 -4z"/>
<path d="M1788 2381 c-26 -15 -57 -36 -68 -46 -20 -18 -21 -18 -41 3 -28 31
-56 27 -95 -12 -29 -29 -34 -41 -34 -82 0 -30 6 -54 17 -66 15 -17 15 -18 -1
-18 -38 0 -54 19 -61 75 -6 49 -9 55 -30 55 -27 0 -25 -19 3 -52 12 -14 13
-23 2 -47 -8 -21 -9 -39 -2 -63 17 -52 30 -128 23 -128 -4 0 -20 26 -36 57
-27 51 -94 143 -131 181 -8 7 -19 22 -24 33 -9 15 -22 19 -69 19 -61 0 -77
-12 -65 -45 4 -9 -6 -27 -22 -44 -65 -66 -119 -141 -157 -217 -26 -51 -61
-180 -53 -193 3 -4 6 -40 7 -80 2 -78 30 -190 69 -279 25 -59 27 -59 105 -16
l45 26 -16 30 c-53 103 -84 271 -65 359 20 93 94 216 113 187 5 -7 8 -168 7
-358 -1 -426 -5 -409 109 -412 93 -1 99 -2 106 -9 11 -11 10 -207 -2 -221 -19
-24 -15 -227 8 -403 12 -92 19 -178 15 -202 -6 -40 -8 -43 -38 -43 -36 0 -77
24 -77 45 0 7 -5 15 -11 17 -10 3 -3 66 40 338 5 30 7 58 4 63 -2 4 -42 7 -87
7 l-83 0 -7 -172 c-3 -95 -9 -215 -13 -266 l-6 -93 334 3 c285 3 334 5 334 18
0 11 -27 18 -109 30 -70 10 -111 21 -114 29 -3 8 -13 22 -23 32 -18 18 -19 42
-19 457 0 349 -4 498 -21 728 -12 159 -22 321 -23 359 -1 65 0 70 22 73 17 3
22 -1 22 -20 0 -33 46 -85 80 -93 16 -3 34 -13 41 -21 17 -20 59 -17 84 6 17
16 41 22 109 27 75 5 89 9 105 30 l19 23 47 -20 c55 -24 83 -25 104 -6 9 8 56
20 105 26 49 6 93 13 97 15 4 3 21 0 39 -6 54 -19 75 -1 100 81 12 40 19 74
17 76 -2 3 -17 -1 -33 -7 -30 -12 -461 -14 -496 -3 -10 3 -25 -1 -32 -9 -9 -9
-26 -12 -42 -9 l-28 5 50 43 c27 24 52 44 57 44 18 0 3 38 -29 73 -29 31 -38
36 -50 26 -16 -13 -18 -5 -4 21 7 12 7 28 0 44 -13 35 -60 34 -122 -3z m32
-131 c-33 -26 -52 -25 -21 0 13 11 28 20 35 20 6 0 0 -9 -14 -20z m-94 -49
c-3 -5 -18 -11 -33 -14 -26 -5 -26 -4 -8 9 21 15 49 19 41 5z m394 -100 c0 -6
-4 -13 -10 -16 -5 -3 -10 1 -10 9 0 9 5 16 10 16 6 0 10 -4 10 -9z m-295 -11
c-3 -5 -14 -10 -23 -10 -15 0 -15 2 -2 10 20 13 33 13 25 0z"/>
<path d="M3413 2368 c-30 -33 -36 -126 -19 -297 15 -155 23 -174 73 -173 15 0
34 -5 41 -11 19 -15 106 -14 125 2 24 19 21 56 -8 99 -24 35 -25 44 -25 169 0
122 -2 134 -21 151 -11 9 -35 32 -54 50 -41 39 -82 42 -112 10z"/>
<path d="M862 2350 c-8 -13 -8 -20 -2 -20 6 0 13 7 17 15 9 24 -1 27 -15 5z"/>
<path d="M892 2327 l-23 -42 25 30 c21 25 34 55 24 55 -2 0 -13 -19 -26 -43z"/>
<path d="M3950 2331 c-18 -35 -11 -39 60 -39 39 0 70 1 70 3 0 2 -4 15 -10 29
-12 32 -50 36 -50 6 0 -11 -4 -20 -10 -20 -5 0 -10 9 -10 20 0 26 -36 27 -50
1z"/>
<path d="M2010 2314 c-12 -31 -13 -44 -1 -44 13 0 35 29 38 51 4 29 -26 23
-37 -7z"/>
<path d="M3687 2333 c-14 -13 -7 -33 11 -33 24 0 32 8 25 26 -5 15 -25 19 -36
7z"/>
<path d="M3750 2320 c0 -15 7 -20 25 -20 27 0 32 9 13 28 -18 18 -38 14 -38
-8z"/>
<path d="M805 2310 c-16 -7 -17 -9 -3 -9 9 -1 20 4 23 9 7 11 7 11 -20 0z"/>
<path d="M2100 2301 c0 -5 68 -10 150 -10 92 -1 150 2 150 8 0 6 -60 10 -150
10 -82 0 -150 -4 -150 -8z"/>
<path d="M3265 2289 c-47 -5 -138 -52 -185 -94 -9 -8 -22 -15 -28 -15 -7 0
-12 -6 -12 -14 0 -8 -8 -28 -17 -44 -16 -29 -16 -32 -1 -49 12 -13 14 -23 8
-33 -5 -8 -10 -27 -10 -41 0 -22 -10 -31 -63 -57 -99 -49 -267 -60 -400 -27
-22 6 -26 2 -41 -41 -28 -84 -25 -90 52 -105 103 -19 262 -15 356 10 44 12 81
21 83 21 2 0 3 -19 1 -42 -3 -37 -9 -47 -53 -81 -27 -21 -70 -48 -95 -60 -25
-12 -46 -22 -48 -23 -5 -3 47 -102 56 -108 4 -3 34 8 66 24 l57 29 -5 -77 c-3
-42 -6 -289 -6 -549 l0 -471 -30 -34 c-28 -30 -38 -34 -133 -48 -81 -12 -102
-19 -105 -33 -3 -16 19 -17 334 -17 l337 0 -7 77 c-13 142 -26 541 -32 1050
-6 394 -4 515 6 563 10 46 10 64 1 73 -6 6 -11 45 -11 94 0 65 3 85 15 89 25
10 17 31 -12 35 -16 2 -50 1 -78 -2z m-95 -1376 c0 -10 16 -121 34 -248 29
-194 32 -231 20 -238 -8 -4 -14 -14 -14 -22 0 -18 -6 -21 -57 -30 -38 -6 -43
-5 -43 12 0 11 -5 24 -11 30 -7 7 -2 81 20 255 17 135 31 248 31 251 0 16 20
5 20 -10z"/>
<path d="M840 2280 c-9 -6 -10 -10 -3 -10 6 0 15 5 18 10 8 12 4 12 -15 0z"/>
<path d="M2462 2267 c-29 -13 -28 -19 11 -42 17 -10 37 -26 44 -34 10 -14 13
-12 23 10 23 50 -25 89 -78 66z"/>
<path d="M3720 2265 c-17 -21 -10 -26 26 -16 28 7 28 8 8 19 -18 9 -24 9 -34
-3z"/>
<path d="M798 2263 c7 -3 16 -2 19 1 4 3 -2 6 -13 5 -11 0 -14 -3 -6 -6z"/>
<path d="M3989 2253 c-12 -15 -12 -16 5 -10 10 4 25 2 32 -4 17 -14 19 2 2 19
-16 16 -23 15 -39 -5z"/>
<path d="M3853 2243 c15 -2 37 -2 50 0 12 2 0 4 -28 4 -27 0 -38 -2 -22 -4z"/>
<path d="M4123 2243 c15 -2 37 -2 50 0 12 2 0 4 -28 4 -27 0 -38 -2 -22 -4z"/>
<path d="M3698 2182 c-10 -2 -18 -7 -18 -10 0 -4 -3 -17 -6 -29 -6 -22 -4 -23
60 -23 64 0 66 1 66 25 0 27 -42 54 -48 31 -12 -39 -15 -41 -26 -16 -7 16 -17
24 -28 22z"/>
<path d="M383 2163 l-43 -4 0 -165 0 -164 140 0 140 0 0 165 0 165 -37 -1
c-37 -1 -37 -2 -8 -8 l30 -6 0 -150 0 -150 -125 0 -125 0 0 150 0 150 30 3
c17 2 34 8 40 13 5 5 7 8 5 7 -3 -1 -24 -3 -47 -5z"/>
<path d="M480 2160 c0 -5 5 -10 11 -10 5 0 7 5 4 10 -3 6 -8 10 -11 10 -2 0
-4 -4 -4 -10z"/>
<path d="M3957 2163 c-12 -11 -8 -23 8 -23 8 0 15 7 15 15 0 16 -12 20 -23 8z"/>
<path d="M4040 2155 c0 -8 7 -15 16 -15 14 0 14 3 4 15 -7 8 -14 15 -16 15 -2
0 -4 -7 -4 -15z"/>
<path d="M428 2133 c6 -2 18 -2 25 0 6 3 1 5 -13 5 -14 0 -19 -2 -12 -5z"/>
<path d="M407 2083 c-15 -14 -7 -43 12 -43 23 0 34 23 18 39 -13 13 -21 14
-30 4z m19 -30 c-10 -10 -19 5 -10 18 6 11 8 11 12 0 2 -7 1 -15 -2 -18z"/>
<path d="M480 2060 c0 -5 18 -10 40 -10 22 0 40 5 40 10 0 6 -18 10 -40 10
-22 0 -40 -4 -40 -10z"/>
<path d="M3850 1996 c0 -13 -3 -31 -6 -40 -5 -14 7 -16 92 -16 76 0 95 3 86
12 -7 7 -12 25 -12 40 l0 28 -80 0 c-78 0 -80 -1 -80 -24z"/>
<path d="M400 1991 c0 -26 17 -36 35 -21 18 15 8 40 -16 40 -12 0 -19 -7 -19
-19z m30 -1 c0 -5 -4 -10 -10 -10 -5 0 -10 5 -10 10 0 6 5 10 10 10 6 0 10 -4
10 -10z"/>
<path d="M480 1990 c0 -5 21 -10 46 -10 27 0 43 4 39 10 -3 6 -24 10 -46 10
-21 0 -39 -4 -39 -10z"/>
<path d="M403 1929 c-16 -16 -5 -39 19 -39 14 0 19 6 16 22 -4 25 -19 33 -35
17z m23 -26 c-10 -10 -19 5 -10 18 6 11 8 11 12 0 2 -7 1 -15 -2 -18z"/>
<path d="M480 1910 c0 -5 18 -10 40 -10 22 0 40 5 40 10 0 6 -18 10 -40 10
-22 0 -40 -4 -40 -10z"/>
<path d="M544 1696 c-93 -93 18 -242 136 -181 17 9 30 12 30 8 1 -5 10 15 21
42 18 47 18 52 3 93 -19 50 -54 72 -115 72 -33 0 -47 -6 -75 -34z m147 -15
c33 -34 37 -69 12 -112 -34 -57 -103 -61 -148 -7 -34 40 -33 82 4 119 22 21
39 29 66 29 27 0 44 -8 66 -29z"/>
<path d="M606 1671 c-22 -24 -20 -38 9 -57 14 -9 25 -21 25 -26 0 -6 -11 -8
-25 -6 -29 6 -33 -7 -6 -21 14 -8 22 -6 35 8 23 25 20 46 -10 59 -25 12 -24
38 2 28 21 -8 25 9 4 21 -14 10 -21 8 -34 -6z"/>
<path d="M2537 1612 c-31 -32 -57 -64 -57 -72 0 -17 219 -240 235 -240 16 0
125 114 125 131 0 21 -77 99 -98 99 -12 0 -9 -7 11 -28 15 -15 27 -33 27 -38
0 -5 -22 -32 -50 -59 l-50 -49 -80 80 c-44 43 -80 84 -80 89 0 6 23 33 51 60
l50 50 35 -37 c32 -36 54 -48 54 -30 0 11 -94 102 -106 102 -5 0 -35 -26 -67
-58z m18 -22 c-10 -11 -20 -18 -23 -15 -3 3 3 14 13 25 10 11 20 18 23 15 3
-3 -3 -14 -13 -25z m225 -205 c0 -8 -9 -15 -20 -15 -11 0 -20 7 -20 15 0 8 9
15 20 15 11 0 20 -7 20 -15z"/>
<path d="M3668 1573 c7 -3 16 -2 19 1 4 3 -2 6 -13 5 -11 0 -14 -3 -6 -6z"/>
<path d="M3574 1530 c-46 -18 -68 -85 -44 -131 6 -10 24 -26 41 -35 95 -49
180 77 100 148 -32 29 -59 34 -97 18z m95 -36 c28 -35 26 -69 -4 -99 -40 -41
-110 -25 -128 28 -8 22 9 68 30 85 29 22 79 15 102 -14z"/>
<path d="M3594 1478 c-4 -14 -1 -25 10 -33 20 -15 21 -35 0 -35 -8 0 -12 -5
-9 -10 9 -14 45 6 45 25 0 8 -9 19 -20 25 -24 13 -26 30 -4 30 8 0 12 5 9 10
-10 16 -23 11 -31 -12z"/>
<path d="M3700 1530 c-9 -6 -10 -10 -3 -10 6 0 15 5 18 10 8 12 4 12 -15 0z"/>
<path d="M732 1495 c-1 -14 17 -40 51 -73 l53 -53 19 21 c18 20 18 21 -33 73
-55 56 -87 67 -90 32z"/>
<path d="M3736 1510 c5 -8 11 -35 15 -60 l6 -45 2 41 c0 23 -5 48 -15 60 -8
10 -12 12 -8 4z"/>
<path d="M3716 1353 c-6 -14 -5 -15 5 -6 7 7 10 15 7 18 -3 3 -9 -2 -12 -12z"/>
<path d="M3628 1303 c7 -3 16 -2 19 1 4 3 -2 6 -13 5 -11 0 -14 -3 -6 -6z"/>
<path d="M1078 1243 c6 -2 18 -2 25 0 6 3 1 5 -13 5 -14 0 -19 -2 -12 -5z"/>
<path d="M1148 1243 c6 -2 18 -2 25 0 6 3 1 5 -13 5 -14 0 -19 -2 -12 -5z"/>
<path d="M1080 1042 c-36 -6 -51 -21 -44 -46 10 -30 18 -33 95 -35 57 -1 72 2
89 19 24 24 25 33 5 50 -15 12 -98 19 -145 12z m125 -33 c11 -16 0 -21 -62
-26 -59 -4 -91 6 -79 26 9 14 133 15 141 0z"/>
<path d="M840 1036 c0 -2 8 -10 18 -17 15 -13 16 -12 3 4 -13 16 -21 21 -21
13z"/>
</g>
</svg>
