<?xml version="1.0" standalone="no"?>
<!DOCTYPE svg PUBLIC "-//W3C//DTD SVG 20010904//EN"
 "http://www.w3.org/TR/2001/REC-SVG-20010904/DTD/svg10.dtd">
<svg version="1.0" xmlns="http://www.w3.org/2000/svg"
 width="474.000000pt" height="234.000000pt" viewBox="0 0 474.000000 234.000000"
 preserveAspectRatio="xMidYMid meet">

<g transform="translate(0.000000,234.000000) scale(0.100000,-0.100000)"
fill="#000000" stroke="none">
<path d="M2306 1873 c-4 -4 -28 -7 -54 -8 l-47 0 -3 -44 c-3 -34 1 -49 17 -65
12 -12 30 -32 42 -46 l20 -25 -6 43 c-5 33 -4 41 7 37 8 -3 27 8 43 25 32 34
59 38 74 13 9 -16 10 -16 11 -1 0 29 -12 48 -41 63 -31 16 -52 19 -63 8z"/>
<path d="M3703 1816 l-28 -24 0 -190 c0 -105 -3 -194 -8 -198 -4 -4 -31 0 -59
9 -29 9 -53 15 -55 14 -7 -8 64 -97 78 -97 24 0 30 -11 16 -28 -12 -16 -11
-16 40 5 24 9 25 -27 5 -105 -25 -94 -40 -346 -22 -357 14 -9 250 -8 286 1
l26 7 -7 121 c-4 66 -15 156 -26 198 -27 111 -29 107 44 105 l62 -2 3 34 c3
31 -59 224 -79 246 -5 5 -9 20 -9 34 0 39 -78 187 -116 221 -45 39 -109 42
-151 6z m116 -75 c6 -10 13 -37 17 -60 4 -26 14 -46 26 -52 42 -23 -39 -60
-98 -45 -21 6 -24 9 -13 22 10 12 8 19 -9 37 -11 12 -23 33 -27 47 -5 21 0 28
32 47 47 27 60 28 72 4z m136 -351 c21 -40 19 -50 -10 -50 -20 0 -25 5 -25 24
0 24 9 56 16 56 2 0 10 -13 19 -30z m-197 -20 c9 -5 29 -14 45 -20 17 -6 27
-17 27 -30 0 -16 -6 -20 -32 -20 -18 0 -38 4 -44 8 -13 9 -44 54 -44 64 0 11
27 10 48 -2z"/>
<path d="M3017 1658 c-21 -159 -21 -156 2 -170 11 -7 21 -23 21 -35 0 -29 13
-35 44 -23 16 6 26 17 26 30 0 11 16 43 35 72 53 77 55 95 12 135 -31 28 -44
33 -86 33 l-49 0 -5 -42z"/>
<path d="M2208 1621 c-31 -20 -62 -47 -69 -61 -14 -28 -25 -235 -15 -274 6
-24 11 -26 56 -26 28 0 50 -1 50 -3 0 -2 -13 -41 -28 -88 -18 -53 -28 -101
-26 -129 l2 -45 147 -3 148 -3 -6 39 c-5 45 16 72 56 72 13 0 26 2 29 5 3 3
-6 38 -20 77 -18 50 -22 73 -14 76 10 3 112 171 112 186 0 3 -29 6 -64 6 -56
0 -66 -3 -71 -20 -12 -38 -21 -20 -32 66 -7 47 -19 97 -27 110 -14 20 -83 50
-94 40 -2 -2 8 -21 22 -43 37 -56 74 -163 78 -222 3 -56 2 -55 65 -35 12 4 9
-2 -11 -21 -15 -14 -41 -29 -57 -32 -37 -7 -47 -23 -20 -30 23 -6 26 -32 15
-117 -6 -43 -9 -46 -37 -46 l-30 0 8 101 7 102 -25 -7 c-19 -4 -26 -1 -30 14
-6 24 0 30 30 30 21 0 23 5 23 45 0 57 -20 116 -69 200 -22 36 -41 68 -43 69
-1 2 -29 -13 -60 -33z m12 -220 c0 -5 3 -23 6 -40 6 -26 4 -30 -10 -25 -18 7
-23 74 -6 74 6 0 10 -4 10 -9z"/>
<path d="M1553 1618 c-20 -26 -23 -53 -12 -109 13 -67 35 -83 24 -18 -7 39 -6
42 14 36 16 -4 21 -1 21 14 0 19 17 26 75 31 18 2 31 9 33 20 5 28 -135 51
-155 26z"/>
<path d="M524 1551 c-24 -11 -79 -77 -93 -113 -11 -30 1 -53 39 -73 39 -20 47
-19 55 8 4 12 14 37 22 55 15 31 18 33 58 26 33 -5 43 -3 48 10 8 19 -5 57
-24 73 -20 16 -80 24 -105 14z"/>
<path d="M1158 1339 c-31 -123 -55 -226 -52 -228 10 -10 34 38 51 102 9 37 20
67 23 67 4 0 46 -104 86 -212 5 -16 -1 -18 -60 -18 -59 0 -66 -2 -66 -20 0
-17 -7 -20 -45 -20 -25 0 -45 -4 -45 -10 0 -6 55 -10 145 -10 134 0 147 2 166
21 25 25 13 39 -36 39 -30 0 -32 4 -84 134 l-54 133 17 86 c10 47 16 102 14
123 -2 28 -17 -19 -60 -187z"/>
<path d="M2964 1413 c-32 -18 -46 -35 -63 -75 -12 -28 -19 -53 -17 -55 2 -3 7
5 11 16 3 12 11 19 16 15 6 -3 9 2 7 12 -2 11 2 18 8 17 7 -1 10 5 7 16 -2 9
3 23 11 30 9 8 16 10 16 6 0 -4 7 -2 15 5 11 9 19 7 37 -10 12 -11 24 -16 26
-10 2 5 9 7 15 3 7 -3 8 -2 4 3 -5 5 -16 9 -25 9 -9 0 -19 9 -22 20 -5 21 -5
21 -46 -2z"/>
<path d="M3136 1416 c-4 -16 -15 -25 -37 -30 -18 -3 -29 -9 -26 -12 14 -14 58
8 72 36 9 17 11 30 6 30 -5 0 -12 -11 -15 -24z"/>
<path d="M3186 1426 c10 -8 21 -12 24 -10 5 6 -21 24 -34 24 -6 0 -1 -6 10
-14z"/>
<path d="M3220 1409 c0 -5 5 -7 11 -4 6 4 13 -2 16 -14 3 -12 12 -21 20 -21
13 0 13 3 2 18 -25 31 -49 42 -49 21z"/>
<path d="M1493 1384 c-23 -8 -53 -26 -67 -39 l-26 -24 6 -153 c6 -160 8 -178
22 -178 4 0 6 32 4 70 l-4 70 38 0 c37 0 65 -18 88 -57 9 -17 -11 -53 -29 -53
-8 0 -15 -7 -15 -15 0 -13 36 -15 264 -15 l263 0 22 73 c12 39 28 93 36 120
l14 47 -78 0 -78 0 -18 -65 c-9 -36 -21 -65 -25 -65 -12 0 -39 41 -89 132 -43
78 -106 144 -149 155 -16 4 -29 -2 -47 -21 -13 -14 -27 -26 -30 -26 -19 0 -45
23 -45 40 0 23 -1 23 -57 4z m349 -318 c28 -29 45 -53 40 -58 -5 -5 -36 -8
-68 -6 -49 2 -59 6 -56 20 2 12 -6 18 -25 20 -31 3 -31 2 -13 93 l12 59 31
-39 c17 -22 53 -62 79 -89z"/>
<path d="M3170 1392 c0 -5 7 -9 15 -9 8 0 12 4 9 9 -3 4 -9 8 -15 8 -5 0 -9
-4 -9 -8z"/>
<path d="M3284 1340 c16 -84 17 -102 7 -95 -6 3 -11 -1 -11 -9 0 -9 7 -16 15
-16 11 0 15 -11 15 -41 0 -39 -2 -41 -25 -36 -24 4 -24 3 -10 -13 18 -20 19
-36 3 -46 -8 -5 -9 0 -6 14 4 12 2 22 -3 22 -5 0 -9 -20 -9 -44 0 -24 -3 -51
-6 -60 -11 -29 41 -20 54 9 22 47 8 280 -18 324 -8 13 -9 11 -6 -9z"/>
<path d="M466 1311 c-33 -37 -45 -92 -46 -216 0 -66 -7 -151 -15 -190 -15 -69
-12 -118 8 -143 11 -14 1 -30 -11 -16 -5 5 -32 108 -61 229 -30 121 -57 224
-62 230 -6 5 -13 5 -20 -2 -17 -17 57 -564 78 -580 14 -11 14 -26 -1 -150 -10
-76 -20 -155 -23 -175 -4 -31 -2 -38 11 -38 9 0 16 3 16 6 0 3 16 82 35 175
19 94 35 172 35 175 0 2 58 4 130 4 l129 0 6 33 c5 33 25 196 25 209 0 4 -19
12 -42 18 -79 20 -79 21 -73 40 3 10 1 21 -5 25 -6 3 -10 -3 -10 -14 0 -12 -7
-21 -15 -21 -8 0 -15 -4 -15 -10 0 -12 -30 -13 -49 -1 -7 5 -15 26 -17 47 -1
22 -6 57 -11 79 -4 22 -6 69 -3 105 5 59 6 62 13 32 5 -18 17 -38 28 -45 10
-6 19 -19 19 -27 1 -22 25 -50 44 -50 24 0 33 30 13 42 -10 5 -17 15 -17 23 0
8 -8 19 -19 24 -23 13 -55 77 -45 93 5 7 1 9 -13 6 -20 -5 -20 -4 -11 70 1 7
4 11 7 9 3 -1 25 -11 48 -21 33 -14 45 -26 54 -54 6 -21 15 -41 20 -46 12 -14
11 -8 -9 47 -15 42 -23 51 -56 62 -21 8 -42 19 -46 25 -4 7 -13 4 -24 -9z"/>
<path d="M4257 1280 c-4 -30 -7 -84 -6 -120 l0 -65 15 43 c12 34 13 60 7 120
l-9 77 -7 -55z m10 -102 c-3 -8 -6 -5 -6 6 -1 11 2 17 5 13 3 -3 4 -12 1 -19z"/>
<path d="M4389 1258 c0 -13 -2 -30 -5 -38 -2 -8 -7 -31 -10 -50 -4 -28 -3 -32
6 -20 9 11 10 -19 6 -128 -5 -149 -17 -201 -27 -122 -3 29 -5 10 -5 -52 0 -55
4 -94 9 -91 5 3 6 19 3 35 -3 16 -2 27 3 24 5 -3 12 11 15 32 9 55 20 432 12
432 -3 0 -6 -10 -7 -22z"/>
<path d="M2863 1239 c-7 -17 -9 -29 -6 -25 3 3 12 1 20 -5 9 -9 13 -8 13 0 0
6 -4 11 -9 11 -4 0 -6 11 -3 25 6 34 -1 31 -15 -6z"/>
<path d="M518 1248 c9 -9 15 -9 24 0 9 9 7 12 -12 12 -19 0 -21 -3 -12 -12z"/>
<path d="M2915 1240 c-3 -5 -1 -10 4 -10 6 0 11 5 11 10 0 6 -2 10 -4 10 -3 0
-8 -4 -11 -10z"/>
<path d="M3195 1219 c-4 -5 -11 -6 -17 -3 -6 4 -9 1 -6 -7 3 -8 12 -13 21 -11
8 1 18 -2 22 -8 3 -5 -3 -10 -13 -10 -15 0 -19 -5 -15 -21 5 -16 11 -19 32
-14 14 4 30 13 34 21 4 8 15 14 22 14 8 0 15 4 15 10 0 5 -7 7 -15 4 -8 -4
-15 -1 -15 6 0 7 -8 9 -21 5 -13 -5 -19 -3 -15 3 3 5 -1 12 -9 16 -8 3 -17 1
-20 -5z m55 -44 c-7 -8 -16 -15 -21 -15 -5 0 -6 7 -3 15 4 8 13 15 21 15 13 0
13 -3 3 -15z"/>
<path d="M2905 1197 c4 -21 2 -27 -6 -21 -9 5 -10 1 -7 -14 5 -18 4 -19 -14
-9 -11 7 -17 19 -14 30 5 21 -12 23 -20 2 -5 -12 -28 -15 -123 -15 -64 0 -122
-4 -130 -9 -12 -8 -13 -16 -2 -50 10 -36 9 -45 -9 -81 l-21 -41 218 2 c197 2
220 4 236 21 10 10 13 18 8 18 -5 0 -12 8 -14 18 -4 14 -5 14 -6 -3 -1 -19 -1
-19 -15 0 -7 11 -16 41 -20 67 -4 26 -11 50 -17 53 -5 4 -9 11 -9 16 0 6 4 8
9 5 5 -4 7 3 4 15 -4 16 -8 17 -14 7 -7 -10 -9 -10 -9 2 0 12 -2 13 -9 1 -7
-11 -10 -11 -15 0 -3 8 -4 1 -1 -14z m54 -100 c6 -35 11 -66 11 -69 0 -4 -77
11 -88 18 -5 3 52 114 59 114 4 0 12 -28 18 -63z"/>
<path d="M3144 1195 c-5 -20 -9 -23 -15 -13 -12 19 -11 0 1 -23 9 -16 6 -22
-23 -39 -18 -11 -43 -33 -55 -50 l-23 -30 35 0 c19 0 38 5 41 10 3 6 15 10 26
10 14 0 19 -7 19 -25 0 -24 -2 -25 -67 -25 -85 0 -77 -9 13 -15 l70 -4 -3 111
c-3 116 -7 139 -19 93z"/>
<path d="M570 1191 c0 -7 -4 -9 -10 -6 -5 3 -10 -1 -10 -9 0 -9 4 -16 9 -16
11 0 24 31 16 38 -3 3 -5 0 -5 -7z"/>
<path d="M606 1161 c-3 -5 1 -11 9 -14 9 -4 12 -1 8 9 -6 16 -10 17 -17 5z"/>
<path d="M967 1100 c-8 -22 -12 -40 -8 -40 8 0 35 70 28 76 -2 2 -11 -14 -20
-36z"/>
<path d="M620 1116 c0 -9 5 -16 10 -16 6 0 10 4 10 9 0 6 -4 13 -10 16 -5 3
-10 -1 -10 -9z"/>
<path d="M4360 1110 c0 -5 5 -10 10 -10 6 0 10 5 10 10 0 6 -4 10 -10 10 -5 0
-10 -4 -10 -10z"/>
<path d="M4273 1065 c0 -27 2 -38 4 -22 2 15 2 37 0 50 -2 12 -4 0 -4 -28z"/>
<path d="M636 1081 c-4 -6 -2 -11 3 -11 6 0 11 -6 11 -13 0 -8 15 -12 45 -12
56 0 58 11 4 18 -23 3 -45 11 -49 17 -5 9 -9 9 -14 1z"/>
<path d="M1522 1060 c0 -14 2 -19 5 -12 2 6 2 18 0 25 -3 6 -5 1 -5 -13z"/>
<path d="M4164 1069 c2 -9 8 -37 11 -63 5 -29 12 -46 21 -46 7 0 18 -9 24 -21
7 -11 14 -19 16 -16 6 6 -29 67 -39 67 -5 0 -5 4 -2 10 3 5 -4 26 -15 47 -12
21 -19 31 -16 22z"/>
<path d="M4371 1080 c-7 -15 -5 -68 2 -61 5 5 7 21 4 37 -2 16 -5 27 -6 24z"/>
<path d="M596 1049 c-10 -10 -15 -23 -11 -29 4 -6 -1 -18 -11 -26 -17 -13 -17
-13 -1 -8 13 5 16 2 11 -10 -3 -9 -1 -16 6 -16 6 0 10 10 8 23 -2 17 1 21 17
18 40 -8 155 -5 155 4 0 6 -20 9 -45 7 -24 -1 -47 2 -50 8 -3 5 -17 10 -30 10
-15 0 -25 7 -27 18 -3 18 -4 18 -22 1z"/>
<path d="M4240 1016 c0 -25 5 -48 10 -51 6 -4 10 13 10 44 0 28 -4 51 -10 51
-5 0 -10 -20 -10 -44z"/>
<path d="M3068 1023 c6 -2 18 -2 25 0 6 3 1 5 -13 5 -14 0 -19 -2 -12 -5z"/>
<path d="M990 1000 c0 -5 12 -10 26 -10 14 0 23 4 19 10 -3 6 -15 10 -26 10
-10 0 -19 -4 -19 -10z"/>
<path d="M4270 950 c0 -5 5 -10 10 -10 6 0 10 5 10 10 0 6 -4 10 -10 10 -5 0
-10 -4 -10 -10z"/>
<path d="M2188 915 c-3 -3 -1 -27 4 -53 5 -26 11 -104 13 -173 2 -69 12 -159
21 -200 9 -41 17 -89 16 -106 0 -25 4 -33 16 -33 10 0 28 -7 40 -16 22 -15 22
-15 22 28 0 24 4 48 9 54 5 5 46 70 91 144 l82 135 -6 97 c-3 53 -9 103 -12
112 -5 14 -28 16 -148 16 -79 0 -145 -2 -148 -5z m180 -111 l22 -81 -39 -78
-38 -78 -7 37 c-8 41 23 301 34 289 4 -5 16 -44 28 -89z"/>
<path d="M2660 653 c-47 -292 -43 -281 -125 -340 l-30 -22 31 -1 c31 0 125 25
156 41 14 8 15 14 8 35 -9 23 16 112 66 239 6 14 16 -23 36 -125 l28 -145 -22
-18 c-12 -10 -41 -23 -65 -30 -24 -6 -43 -15 -43 -19 0 -4 47 -8 105 -8 l105
0 0 51 0 50 64 29 c104 47 110 48 140 4 16 -24 26 -52 26 -74 0 -44 16 -63 42
-49 24 13 23 36 -2 49 -11 6 -20 19 -20 28 0 10 -7 28 -16 40 -9 13 -14 25
-12 27 1 2 36 -12 76 -30 72 -34 72 -34 72 -73 0 -43 21 -62 46 -41 19 16 17
35 -4 51 -10 7 -21 20 -24 29 -6 16 -66 49 -151 83 l-38 15 3 143 3 143 53 1
c29 1 55 4 59 7 3 4 -61 6 -143 5 -82 -1 -119 -3 -81 -5 l67 -4 0 -145 c0
-129 -2 -145 -17 -150 -10 -3 -46 -17 -81 -31 -34 -14 -65 -23 -68 -20 -3 3
-8 74 -11 159 -3 84 -9 167 -13 185 -9 37 -19 34 160 58 184 25 178 23 195 55
8 16 15 38 15 50 0 20 -4 20 -273 20 l-273 0 -44 -267z"/>
<path d="M1407 903 c-4 -3 -7 -27 -7 -53 0 -75 16 -83 164 -88 l123 -4 -13
-46 c-8 -25 -26 -102 -40 -171 -14 -69 -27 -131 -29 -138 -3 -9 -14 -8 -44 4
l-41 16 0 138 0 138 58 4 c31 2 -6 3 -83 3 -77 0 -112 -1 -77 -3 l62 -4 0
-138 0 -139 -27 -7 c-61 -14 -163 -68 -163 -85 0 -10 -9 -20 -21 -23 -30 -8
-21 -42 11 -42 22 0 25 5 28 37 3 33 7 38 55 58 113 49 123 51 145 27 31 -35
44 -67 38 -93 -4 -16 -2 -26 7 -29 7 -3 98 -4 202 -3 l190 3 -47 22 c-28 13
-48 29 -48 38 0 9 23 117 51 240 28 123 49 239 47 257 -4 41 -25 52 -142 73
-89 15 -386 22 -399 8z m385 -405 c-3 -105 -9 -183 -17 -201 l-12 -30 -22 22
c-11 11 -24 21 -29 21 -4 0 -13 13 -20 30 -13 27 -9 40 45 180 32 82 58 150
58 150 0 0 -1 -77 -3 -172z m-199 -128 c9 -8 -1 -60 -12 -60 -4 0 -13 15 -21
33 -7 17 -15 36 -18 41 -5 9 39 -2 51 -14z m87 -50 c0 -5 -4 -10 -10 -10 -5 0
-10 5 -10 10 0 6 5 10 10 10 6 0 10 -4 10 -10z"/>
<path d="M4201 894 c0 -11 3 -14 6 -6 3 7 2 16 -1 19 -3 4 -6 -2 -5 -13z"/>
<path d="M4221 893 c-1 -6 -4 -20 -7 -30 -5 -17 -5 -17 6 0 6 10 9 23 6 30 -3
9 -5 9 -5 0z"/>
<path d="M760 846 c0 -2 -9 -49 -21 -105 -11 -56 -18 -110 -14 -119 4 -9 13
-92 20 -184 8 -92 17 -172 20 -178 18 -30 25 18 25 180 0 149 2 179 15 184 22
8 19 68 -5 98 l-20 26 23 41 c19 36 20 43 7 51 -14 9 -50 14 -50 6z"/>
<path d="M4289 807 c-2 -27 -1 -51 4 -54 4 -2 5 -9 2 -14 -4 -5 -2 -9 3 -9 6
0 13 7 16 16 8 22 8 26 -4 19 -5 -3 -8 0 -5 7 2 7 1 29 -4 48 l-8 35 -4 -48z"/>
<path d="M4221 830 c-1 -21 16 -46 26 -37 4 5 3 11 -3 15 -6 4 -14 14 -17 22
-5 13 -5 13 -6 0z"/>
<path d="M4264 785 c-4 -8 -10 -12 -15 -9 -14 9 -10 -11 7 -32 15 -19 15 -19
11 2 -2 12 0 29 5 38 5 9 6 16 3 16 -3 0 -8 -7 -11 -15z"/>
<path d="M4442 610 c0 -14 2 -19 5 -12 2 6 2 18 0 25 -3 6 -5 1 -5 -13z"/>
<path d="M4422 395 c0 -16 2 -22 5 -12 2 9 2 23 0 30 -3 6 -5 -1 -5 -18z"/>
<path d="M2215 309 c-4 -6 -5 -12 -4 -13 40 -30 60 -36 117 -36 55 0 63 2 53
14 -8 10 -23 13 -46 9 -24 -4 -45 1 -70 16 -42 24 -42 24 -50 10z"/>
<path d="M3938 285 c-2 -2 -61 -5 -131 -6 -70 -1 -130 -5 -133 -10 -3 -5 60
-9 140 -9 85 0 146 4 146 9 0 11 -15 22 -22 16z"/>
<path d="M4278 263 c23 -2 61 -2 85 0 23 2 4 4 -43 4 -47 0 -66 -2 -42 -4z"/>
</g>
</svg>
