<?xml version="1.0" standalone="no"?>
<!DOCTYPE svg PUBLIC "-//W3C//DTD SVG 20010904//EN"
 "http://www.w3.org/TR/2001/REC-SVG-20010904/DTD/svg10.dtd">
<svg version="1.0" xmlns="http://www.w3.org/2000/svg"
 width="474.000000pt" height="234.000000pt" viewBox="0 0 474.000000 234.000000"
 preserveAspectRatio="xMidYMid meet">
<metadata>
Created by potrace 1.16, written by Peter Selinger 2001-2019
</metadata>
<g transform="translate(0.000000,234.000000) scale(0.100000,-0.100000)"
fill="#000000" stroke="none">
<path d="M2306 1873 c-4 -4 -28 -7 -54 -8 l-47 0 -3 -44 c-3 -34 1 -49 17 -65
12 -12 30 -32 42 -46 l20 -25 -6 43 c-6 34 -4 41 8 36 8 -3 26 8 43 25 33 35
58 39 73 14 9 -16 10 -16 11 -1 0 29 -12 48 -41 63 -31 16 -52 19 -63 8z"/>
<path d="M3703 1816 l-28 -24 0 -190 c0 -105 -3 -194 -8 -198 -4 -4 -31 0 -59
9 -29 9 -53 15 -55 14 -7 -8 64 -97 78 -97 23 0 30 -11 17 -27 -9 -11 -6 -12
16 -3 27 10 66 -4 66 -23 0 -4 -4 -6 -8 -3 -4 2 -18 -32 -30 -77 -16 -61 -22
-117 -24 -217 l-3 -135 54 -5 c62 -7 247 3 257 13 11 11 -14 289 -29 333 -9
23 -17 53 -19 65 -3 23 -1 24 62 24 62 0 65 1 69 25 3 27 -38 172 -48 166 -3
-2 -7 6 -7 19 -1 13 -9 38 -18 56 -9 18 -16 41 -16 53 0 35 -80 184 -116 216
-45 39 -109 42 -151 6z m116 -75 c6 -10 13 -37 17 -60 4 -28 14 -46 28 -53 40
-22 47 -35 18 -36 -15 0 -50 -5 -79 -9 -29 -5 -50 -6 -47 -1 8 12 -3 10 -39
-8 l-32 -15 25 20 c14 11 33 23 43 27 17 5 17 8 -6 32 -41 44 -43 73 -4 99 40
27 64 28 76 4z m128 -183 c-18 -12 -23 -10 -23 11 0 15 3 17 18 8 13 -8 14
-13 5 -19z m67 -124 c3 -8 2 -12 -4 -9 -6 3 -10 10 -10 16 0 14 7 11 14 -7z
m-52 -54 l17 -40 -30 0 c-24 0 -29 4 -29 24 0 28 9 56 19 56 3 0 14 -18 23
-40z m35 -12 c2 -17 0 -19 -7 -8 -5 8 -6 18 -4 22 8 12 10 10 11 -14z m-223
-3 c31 -16 52 -19 59 -7 2 4 2 1 0 -6 -1 -8 -3 -22 -3 -33 0 -15 -7 -19 -39
-19 -34 0 -42 5 -60 34 -12 18 -21 36 -21 40 0 11 34 6 64 -9z m-49 -195 c3
-5 -3 -10 -15 -10 -12 0 -18 5 -15 10 3 6 10 10 15 10 5 0 12 -4 15 -10z"/>
<path d="M3017 1658 c-21 -159 -21 -156 2 -170 11 -7 21 -23 21 -35 0 -29 13
-35 44 -23 16 6 26 17 26 30 0 11 16 43 35 72 53 77 55 95 12 135 -31 28 -44
33 -86 33 l-49 0 -5 -42z"/>
<path d="M2256 1651 c-4 -5 -28 -22 -55 -36 -27 -15 -54 -39 -61 -53 -14 -30
-26 -236 -16 -276 6 -24 11 -26 56 -26 28 0 50 -1 50 -3 0 -2 -13 -41 -28 -88
-18 -53 -28 -101 -26 -129 l2 -45 147 -3 148 -3 -6 39 c-6 45 16 72 58 72 31
0 31 9 3 90 -14 44 -18 65 -10 68 11 3 112 172 112 186 0 3 -29 6 -64 6 -56 0
-66 -3 -71 -20 -12 -38 -21 -20 -32 66 -7 47 -19 97 -27 110 -14 20 -83 50
-94 40 -2 -2 8 -21 22 -43 37 -56 74 -163 78 -222 3 -56 2 -55 65 -35 12 4 9
-2 -11 -21 -15 -14 -41 -29 -57 -32 -37 -7 -47 -23 -20 -30 23 -6 26 -32 15
-117 -6 -43 -9 -46 -37 -46 l-30 0 8 101 7 102 -25 -7 c-19 -4 -26 -1 -30 14
-6 24 0 30 30 30 21 0 23 5 23 45 0 57 -20 116 -69 200 -46 78 -47 79 -55 66z
m-36 -250 c0 -5 3 -23 6 -40 6 -26 4 -30 -10 -25 -18 7 -23 74 -6 74 6 0 10
-4 10 -9z"/>
<path d="M1552 1618 c-20 -25 -23 -60 -12 -109 15 -63 34 -77 26 -19 -5 39 -4
42 14 37 15 -4 20 0 20 14 0 19 17 26 75 31 18 2 31 9 33 19 5 29 -134 53
-156 27z"/>
<path d="M524 1551 c-24 -11 -79 -77 -93 -113 -11 -30 1 -53 39 -73 34 -17 50
-19 50 -5 0 6 10 31 21 56 22 45 22 45 62 39 45 -8 57 2 49 41 -8 43 -81 74
-128 55z"/>
<path d="M1158 1339 c-31 -123 -55 -226 -52 -228 10 -10 34 38 51 102 9 37 20
67 23 67 4 0 46 -104 86 -212 5 -16 -1 -18 -60 -18 -59 0 -66 -2 -66 -20 0
-17 -7 -20 -45 -20 -25 0 -45 -4 -45 -10 0 -6 55 -10 145 -10 134 0 147 2 166
21 25 25 13 39 -36 39 -30 0 -32 4 -84 134 l-54 133 17 86 c10 47 16 102 14
123 -2 28 -17 -19 -60 -187z"/>
<path d="M3135 1427 c-14 -30 -63 -56 -74 -39 -4 7 -14 12 -21 10 -7 -2 -18 7
-25 18 -10 20 -14 21 -40 9 -45 -19 -62 -43 -96 -135 -47 -130 -33 -120 -162
-120 -137 0 -145 -4 -128 -59 10 -36 9 -45 -9 -81 l-20 -40 304 1 304 0 -2
100 c-3 95 5 127 18 74 5 -21 12 -25 42 -25 l36 0 -7 -75 c-6 -65 -5 -75 9
-75 9 0 25 9 36 20 17 17 20 33 20 118 0 121 -15 219 -38 252 -19 26 -68 53
-112 64 -20 4 -28 0 -35 -17z m75 -237 c0 -5 -5 -10 -11 -10 -5 0 -7 5 -4 10
3 6 8 10 11 10 2 0 4 -4 4 -10z m-255 -86 c3 -26 9 -53 12 -61 5 -13 -1 -14
-38 -8 -24 4 -46 9 -47 10 -5 5 52 105 59 105 4 0 10 -21 14 -46z"/>
<path d="M1484 1379 c-17 -5 -43 -20 -59 -34 -27 -26 -27 -27 -21 -118 3 -51
7 -123 8 -160 1 -38 6 -71 11 -74 5 -3 7 26 6 63 l-3 69 52 3 c43 3 51 1 46
-12 -3 -9 -1 -16 5 -16 5 0 15 -9 21 -20 13 -24 -3 -60 -25 -60 -8 0 -15 -7
-15 -14 0 -13 40 -15 263 -16 l264 0 22 72 c12 40 28 94 36 121 l14 47 -78 0
-78 0 -18 -65 c-9 -36 -21 -65 -26 -65 -10 0 -60 75 -105 159 -29 54 -90 113
-131 125 -15 5 -28 0 -47 -19 -31 -30 -57 -29 -71 3 -10 24 -22 25 -71 11z
m251 -49 c3 -5 1 -10 -4 -10 -6 0 -11 5 -11 10 0 6 2 10 4 10 3 0 8 -4 11 -10z
m28 -170 c10 -16 42 -55 72 -87 31 -31 51 -61 46 -66 -14 -14 -126 -4 -123 11
1 7 -11 15 -29 19 -25 5 -30 10 -25 27 2 12 8 39 11 61 12 76 20 82 48 35z
m-183 -124 c0 -2 -7 -9 -15 -16 -13 -11 -14 -10 -9 4 5 14 24 23 24 12z"/>
<path d="M4318 1335 c-4 -22 -10 -74 -14 -115 -8 -87 -18 -73 -29 45 -8 75 -9
78 -16 40 -4 -22 -11 -114 -15 -204 l-7 -164 -38 74 c-21 41 -38 70 -39 66 -1
-27 44 -217 66 -277 24 -64 44 -89 44 -57 0 6 7 3 16 -8 15 -19 16 -19 29 -2
8 12 15 14 20 8 15 -25 34 -6 64 64 31 74 65 189 74 255 l6 35 -20 -40 c-10
-22 -26 -64 -35 -92 -8 -29 -18 -53 -21 -53 -3 0 -2 54 2 120 4 66 3 155 -1
197 l-7 78 -13 -50 c-8 -27 -16 -83 -20 -123 -4 -40 -11 -75 -15 -78 -5 -3 -9
30 -10 73 -1 43 -4 116 -8 163 -5 74 -7 80 -13 45z"/>
<path d="M448 1293 c-21 -34 -24 -54 -29 -198 -4 -88 -12 -182 -18 -209 -12
-50 -7 -101 12 -124 11 -14 1 -30 -11 -16 -5 5 -32 108 -61 229 -30 121 -57
224 -62 230 -6 5 -13 5 -20 -2 -16 -16 57 -564 78 -580 14 -11 14 -26 -1 -150
-10 -76 -20 -155 -23 -175 -4 -31 -2 -38 11 -38 9 0 16 3 16 6 0 3 16 82 35
175 19 94 35 172 35 175 0 2 58 4 130 4 l129 0 5 33 c3 17 10 72 16 121 12
100 12 101 -52 111 -21 4 -40 10 -43 15 -3 4 -2 28 1 52 l6 44 90 -4 89 -5 -3
34 c-3 33 -5 34 -63 44 l-59 10 -28 75 c-51 135 -59 150 -83 150 -13 0 -28 7
-35 15 -20 24 -37 18 -62 -22z"/>
<path d="M967 1100 c-8 -22 -12 -40 -8 -40 8 0 35 70 28 76 -2 2 -11 -14 -20
-36z"/>
<path d="M1521 1064 c0 -11 3 -14 6 -6 3 7 2 16 -1 19 -3 4 -6 -2 -5 -13z"/>
<path d="M990 1000 c0 -5 12 -10 26 -10 14 0 23 4 19 10 -3 6 -15 10 -26 10
-10 0 -19 -4 -19 -10z"/>
<path d="M2188 915 c-3 -3 -1 -27 4 -53 5 -26 11 -104 13 -173 2 -69 12 -159
21 -200 9 -41 17 -88 16 -105 0 -25 5 -33 31 -44 18 -7 35 -15 40 -18 4 -2 7
14 7 36 0 32 15 64 76 164 113 183 108 168 100 275 -3 51 -9 99 -12 108 -5 12
-30 15 -148 15 -79 0 -145 -2 -148 -5z m180 -111 l22 -81 -39 -78 -38 -78 -7
37 c-8 41 23 301 34 289 4 -5 16 -44 28 -89z"/>
<path d="M2660 653 c-47 -292 -43 -281 -125 -340 l-30 -22 31 -1 c31 0 125 25
156 41 14 8 15 14 8 35 -9 23 16 112 66 239 6 14 16 -23 36 -125 l28 -145 -22
-18 c-12 -10 -41 -23 -65 -30 -24 -6 -43 -15 -43 -19 0 -4 47 -8 105 -8 l105
0 0 51 0 50 64 29 c104 47 110 48 140 4 16 -24 26 -52 26 -74 0 -44 16 -63 42
-49 24 13 23 36 -2 49 -11 6 -20 19 -20 28 0 10 -7 28 -16 40 -9 13 -14 25
-12 27 1 2 36 -12 76 -30 69 -32 72 -35 72 -68 0 -42 23 -66 45 -47 21 17 19
37 -5 52 -11 7 -20 18 -20 25 0 16 -70 56 -138 79 l-53 19 3 145 3 145 53 1
c29 1 55 4 59 7 3 4 -61 6 -143 5 -82 -1 -119 -3 -81 -5 l67 -4 0 -145 c0
-129 -2 -145 -17 -150 -10 -3 -46 -17 -81 -31 -34 -14 -65 -23 -68 -20 -3 3
-8 74 -11 159 -3 84 -9 167 -13 185 -9 37 -19 34 160 58 184 25 178 23 195 55
8 16 15 38 15 50 0 20 -4 20 -273 20 l-273 0 -44 -267z"/>
<path d="M1406 894 c-13 -35 -6 -91 15 -110 17 -15 41 -19 143 -22 l123 -4
-13 -46 c-8 -25 -26 -102 -40 -171 -14 -69 -27 -131 -29 -138 -3 -9 -14 -8
-44 4 l-41 16 0 138 0 138 58 4 c31 2 -6 3 -83 3 -77 0 -112 -1 -77 -3 l62 -4
0 -138 0 -139 -27 -7 c-61 -14 -163 -68 -163 -85 0 -10 -9 -20 -21 -23 -30 -8
-21 -42 11 -42 22 0 25 5 28 37 3 33 7 38 55 58 120 52 123 52 152 19 26 -32
41 -72 32 -86 -3 -5 -2 -14 2 -21 6 -9 57 -12 202 -10 l194 3 -47 22 c-28 13
-48 29 -48 38 0 9 23 117 51 240 28 123 49 239 47 257 -2 24 -10 36 -29 45
-51 25 -202 43 -354 43 -130 0 -154 -2 -159 -16z m386 -396 c-3 -105 -9 -183
-17 -201 -12 -29 -12 -30 -32 -10 -11 11 -27 22 -36 26 -10 4 -16 10 -16 14 1
4 -1 16 -5 25 -5 11 13 71 51 167 32 83 58 151 58 151 0 0 -1 -77 -3 -172z
m-199 -128 c9 -8 -1 -60 -12 -60 -4 0 -13 15 -21 33 -7 17 -15 36 -18 41 -5 9
39 -2 51 -14z m87 -50 c0 -5 -4 -10 -10 -10 -5 0 -10 5 -10 10 0 6 5 10 10 10
6 0 10 -4 10 -10z"/>
<path d="M751 795 c-6 -30 -16 -80 -22 -110 -6 -30 -7 -60 -3 -66 3 -6 12 -87
20 -180 7 -93 16 -173 19 -179 18 -30 25 18 25 180 0 149 2 179 15 184 23 8
19 75 -6 102 l-21 22 26 41 c25 39 25 41 7 51 -39 20 -49 12 -60 -45z"/>
<path d="M2215 309 c-4 -6 -5 -12 -4 -13 40 -30 60 -36 117 -36 55 0 63 2 53
14 -8 10 -23 13 -46 9 -24 -4 -45 1 -70 16 -42 24 -42 24 -50 10z"/>
<path d="M3674 269 c-3 -5 59 -9 140 -9 93 0 146 4 146 10 0 13 -278 12 -286
-1z"/>
<path d="M4273 263 c9 -2 25 -2 35 0 9 3 1 5 -18 5 -19 0 -27 -2 -17 -5z"/>
</g>
</svg>
