<?xml version="1.0" standalone="no"?>
<!DOCTYPE svg PUBLIC "-//W3C//DTD SVG 20010904//EN"
 "http://www.w3.org/TR/2001/REC-SVG-20010904/DTD/svg10.dtd">
<svg version="1.0" xmlns="http://www.w3.org/2000/svg"
 width="474.000000pt" height="356.000000pt" viewBox="0 0 474.000000 356.000000"
 preserveAspectRatio="xMidYMid meet">

<g transform="translate(0.000000,356.000000) scale(0.100000,-0.100000)"
fill="#000000" stroke="none">
<path d="M2080 3462 c0 -4 5 -13 12 -20 8 -8 9 -18 1 -34 -10 -22 -9 -23 31
-23 l41 0 0 41 c0 39 -1 41 -21 32 -15 -7 -28 -6 -43 1 -11 7 -21 8 -21 3z
m64 -36 c-9 -24 -34 -28 -34 -6 0 13 7 20 20 20 13 0 17 -5 14 -14z"/>
<path d="M2629 3301 c-51 -52 -36 -133 30 -161 54 -22 124 14 136 70 21 94
-98 159 -166 91z m104 10 c28 -11 60 -71 51 -98 -9 -25 -45 -63 -60 -63 -7 0
-14 17 -16 40 -3 34 0 42 25 61 16 11 26 23 24 26 -3 3 -19 -6 -36 -18 -30
-22 -31 -25 -25 -72 7 -48 6 -49 -17 -42 -36 10 -69 52 -69 86 0 20 10 40 29
60 31 30 53 35 94 20z"/>
<path d="M2121 3279 c-153 -45 -238 -211 -196 -384 32 -133 45 -166 74 -178
14 -7 44 -32 66 -57 37 -42 40 -49 37 -97 l-3 -53 -87 0 c-170 0 -227 -42
-401 -297 -57 -84 -107 -153 -110 -152 -3 0 -20 19 -36 42 -17 23 -54 56 -82
73 -180 108 -401 38 -492 -155 -26 -56 -26 -57 -29 -348 l-4 -292 -31 -20
c-50 -31 -98 -87 -189 -221 -47 -69 -119 -174 -160 -235 -41 -60 -105 -155
-143 -210 -55 -80 -69 -109 -73 -147 -6 -63 2 -91 39 -133 l31 -34 -129 -4
c-70 -1 893 -3 2142 -3 1249 0 2235 2 2193 3 -66 3 -78 7 -78 21 0 15 33 202
45 260 5 21 3 22 -59 22 -79 0 -126 9 -126 24 0 7 20 31 44 55 34 34 48 42 66
36 39 -12 78 13 104 69 13 28 27 64 31 80 6 28 6 28 -31 21 -55 -10 -132 -51
-139 -75 -4 -11 -5 -34 -3 -50 2 -21 -5 -37 -27 -60 -16 -16 -32 -30 -37 -30
-4 0 -8 36 -8 80 l0 81 40 38 c33 32 40 44 40 77 0 48 -64 188 -83 182 -6 -2
-27 -32 -45 -66 -50 -94 -42 -188 18 -207 18 -6 20 -15 20 -96 0 -49 -4 -89
-8 -89 -5 0 -21 13 -36 29 -22 23 -27 35 -22 58 9 41 -23 86 -77 109 l-45 18
-87 212 c-93 227 -115 261 -190 295 -27 13 -64 19 -116 19 -86 0 -89 3 -89 71
0 33 6 45 35 71 24 20 48 31 71 33 20 1 44 11 54 21 23 24 80 238 80 301 -1
59 -38 171 -70 209 -43 52 -89 86 -148 110 -53 22 -71 24 -239 24 -116 0 -183
-4 -183 -10 0 -5 -18 -10 -40 -10 -22 0 -40 2 -40 3 0 2 17 23 39 46 43 46 65
109 64 179 -1 31 5 50 18 63 24 24 24 47 2 79 -12 17 -18 50 -21 105 -4 96
-23 139 -78 178 -118 83 -321 42 -375 -76 -16 -37 -19 -68 -19 -273 0 -145 4
-243 11 -263 6 -18 10 -34 8 -35 -2 -2 -22 -7 -44 -10 -38 -6 -41 -5 -65 34
-35 58 -96 116 -149 142 -35 18 -67 24 -138 26 l-93 4 0 49 c0 44 4 53 35 80
47 42 75 89 84 146 5 26 18 86 31 132 26 97 22 152 -16 220 -13 24 -24 57 -24
73 0 17 -10 39 -25 53 -23 24 -30 25 -137 24 -62 0 -128 -5 -147 -10z m259
-12 c14 -7 28 -26 34 -45 7 -27 6 -38 -11 -60 -38 -51 -75 -64 -201 -71 -64
-4 -127 -13 -140 -20 -36 -20 -62 -70 -62 -123 0 -26 -5 -58 -11 -72 -7 -14
-8 -33 -4 -43 5 -10 14 -37 20 -60 10 -36 9 -43 -2 -43 -17 0 -27 24 -53 122
-36 138 -22 244 41 321 38 46 103 85 160 96 68 13 201 12 229 -2z m70 -149
c20 -43 25 -118 14 -177 -11 -55 -21 -33 -21 47 0 58 -5 87 -18 109 -16 27
-16 63 0 63 3 0 15 -19 25 -42z m-22 -185 c4 -168 -5 -205 -64 -266 -97 -100
-260 -72 -325 54 -22 43 -25 79 -7 79 7 0 2 7 -10 16 -28 20 -30 64 -2 71 21
6 29 25 8 20 -18 -3 -22 40 -9 85 20 65 57 82 191 88 75 4 125 11 145 21 28
15 31 14 50 -3 18 -17 20 -34 23 -165z m712 40 c80 -33 110 -86 110 -197 0
-69 -2 -75 -22 -79 -20 -4 -20 -4 4 -6 24 -1 58 -32 58 -53 0 -16 -41 -48 -61
-48 -12 0 -37 -13 -55 -30 -44 -38 -120 -60 -211 -60 -137 0 -163 33 -163 207
0 124 10 170 47 213 61 74 188 97 293 53z m-897 -377 l57 2 0 -44 0 -44 -90 0
-90 0 0 51 0 51 33 -9 c17 -4 58 -7 90 -7z m1005 -81 c-12 -145 -124 -237
-290 -239 -75 -1 -79 0 -110 32 -32 31 -33 35 -37 129 l-3 96 26 -20 c14 -12
42 -24 61 -27 19 -4 35 -12 35 -18 0 -14 100 -5 109 10 3 6 27 16 53 22 27 7
64 27 85 46 21 18 46 33 57 34 17 0 18 -6 14 -65z m-746 -25 c57 -16 127 -70
171 -132 l40 -56 -50 -49 c-56 -55 -55 -50 -94 -285 -18 -106 -26 -138 -39
-141 -21 -6 -31 -62 -20 -113 6 -27 4 -71 -7 -139 l-16 -100 -81 3 c-45 2 -87
8 -93 14 -7 6 -13 30 -13 55 0 37 5 48 29 69 31 26 81 116 81 145 0 10 13 27
29 38 23 17 31 33 41 86 11 57 10 68 -3 83 -12 13 -16 48 -19 149 -3 124 -4
133 -28 158 -47 50 -67 55 -240 55 -124 0 -160 -3 -160 -13 0 -7 -20 -18 -45
-25 -71 -19 -85 -50 -85 -191 0 -89 -3 -118 -15 -132 -14 -14 -14 -26 -4 -84
10 -58 16 -70 40 -84 16 -9 29 -24 29 -34 0 -28 46 -111 80 -145 24 -25 30
-39 30 -74 0 -24 -4 -48 -8 -54 -4 -6 -41 -12 -86 -13 -44 -1 -87 -6 -97 -12
-10 -5 -22 -9 -28 -9 -8 0 -11 99 -11 315 0 274 2 319 16 340 9 14 12 25 8 24
-5 0 -65 -81 -133 -181 l-123 -180 82 -194 83 -193 -24 -56 c-13 -31 -30 -59
-37 -62 -7 -3 -35 16 -62 41 -27 25 -61 51 -74 56 l-25 9 0 288 c0 236 -3 296
-15 331 l-16 44 123 176 c199 289 183 281 562 281 155 1 286 -3 307 -9z m1175
-203 c74 -38 137 -105 161 -169 36 -98 37 -141 2 -278 -17 -69 -39 -133 -47
-142 -9 -10 -29 -18 -45 -18 -28 0 -28 0 -13 30 8 16 15 38 15 50 0 12 7 34
15 50 12 22 13 35 4 57 -6 15 -12 55 -13 88 -4 116 -48 145 -232 150 -173 6
-228 35 -259 137 -25 86 -38 80 173 76 181 -3 189 -4 239 -31z m-814 -13 c41
-22 53 -24 109 -18 35 4 86 15 113 24 28 10 73 18 101 18 l52 1 6 -40 c5 -28
1 -49 -11 -72 -27 -49 -24 -168 5 -231 l22 -49 -20 -22 c-22 -23 -26 -65 -10
-81 8 -8 -20 -24 -90 -52 -55 -23 -106 -42 -113 -42 -8 0 -55 18 -105 40 -51
22 -98 37 -105 34 -8 -3 -23 3 -34 13 -20 17 -20 21 -8 78 16 70 19 113 7 100
-5 -6 -14 -42 -21 -81 l-12 -70 -92 4 c-51 2 -93 5 -94 6 -6 5 49 306 63 343
19 53 72 100 121 108 41 7 67 12 69 14 1 0 22 -11 47 -25z m-1518 -94 c70 -34
139 -108 164 -175 19 -52 21 -77 21 -337 l0 -280 -22 6 c-13 3 -62 6 -110 6
l-88 0 0 55 c0 30 4 55 9 55 16 0 73 65 92 105 15 32 19 65 19 168 0 82 4 127
11 127 5 0 7 5 4 10 -3 6 -17 10 -31 10 -59 0 -141 66 -171 139 -19 44 -24 36
-11 -15 10 -36 9 -44 -13 -76 -50 -74 -129 -118 -213 -118 -22 0 -36 -4 -30
-8 7 -4 13 -50 16 -107 5 -111 23 -158 77 -209 26 -25 31 -37 31 -78 0 -30 -5
-50 -12 -53 -7 -2 -57 -5 -110 -7 l-98 -4 0 286 c0 278 1 286 24 335 40 86
108 150 193 181 60 22 187 14 248 -16z m1925 11 c0 -5 11 -19 24 -32 l24 -23
-19 -28 c-13 -18 -22 -53 -27 -105 l-7 -78 -18 49 c-19 56 -22 148 -6 195 10
28 29 43 29 22z m-933 -30 c64 -30 73 -56 73 -219 0 -203 -33 -288 -135 -348
-122 -71 -280 18 -314 177 -6 28 -11 108 -11 180 0 213 14 228 220 228 102 1
133 -3 167 -18z m1050 -56 c31 -8 100 -15 153 -15 156 -1 200 -31 200 -141 0
-44 -2 -49 -22 -49 -19 -1 -18 -3 10 -15 50 -22 43 -74 -13 -88 -18 -4 -18 -5
3 -6 66 -3 -28 -157 -120 -195 -106 -45 -240 11 -289 119 -25 54 -28 329 -4
375 9 17 17 30 20 30 2 0 30 -7 62 -15z m-1567 -353 c0 -297 -1 -310 -20 -327
-13 -11 -24 -15 -30 -9 -5 5 -42 88 -83 184 l-75 174 96 143 c54 78 100 142
105 143 4 0 7 -139 7 -308z m-465 181 c17 -6 38 -14 48 -17 17 -5 18 -17 15
-139 -3 -129 -4 -135 -33 -183 -104 -167 -339 -116 -376 81 -4 22 -5 52 -2 68
4 22 11 27 34 27 19 0 30 -6 34 -21 8 -24 47 -41 72 -32 23 9 42 34 43 56 0
10 8 17 19 17 12 0 23 -13 34 -42 30 -83 30 -87 5 -97 l-23 -10 23 0 c31 -1
37 21 18 76 -9 25 -16 53 -16 60 0 23 15 14 27 -17 15 -39 57 -56 89 -36 33
23 40 54 17 85 -26 34 -66 39 -90 12 -23 -28 -86 -28 -120 -1 -36 28 -60 25
-94 -11 -38 -40 -74 -38 -74 6 0 27 4 30 42 37 77 13 151 63 190 129 l17 28
35 -32 c20 -18 50 -38 66 -44z m585 -38 c0 -47 -4 -85 -9 -85 -16 0 -28 25
-38 77 -11 56 2 93 33 93 11 0 14 -18 14 -85z m522 68 c25 -28 1 -153 -28
-153 -11 0 -14 19 -14 85 0 90 9 105 42 68z m808 -113 c0 -16 0 -33 1 -37 2
-17 -21 -12 -31 6 -8 15 -8 27 0 41 16 29 30 24 30 -10z m-2109 -39 c20 -16
22 -23 14 -47 -8 -21 -18 -30 -38 -32 -52 -6 -76 41 -40 80 21 23 35 23 64 -1z
m209 -1 c24 -24 25 -38 3 -62 -19 -21 -56 -24 -70 -5 -21 27 -22 48 -3 67 25
25 45 25 70 0z m1381 -16 c33 -15 59 -29 59 -33 -1 -3 -16 -33 -34 -66 -25
-45 -38 -59 -52 -56 -11 1 -59 5 -107 8 -60 3 -87 9 -84 17 2 6 23 13 48 15
l44 5 -50 5 c-35 4 -50 10 -50 21 0 11 15 17 50 21 l50 6 -57 1 c-44 2 -58 6
-58 17 0 11 14 15 58 17 53 1 54 2 12 5 -25 3 -49 8 -54 13 -20 20 9 30 86 30
65 0 91 -5 139 -26z m529 -34 c0 -33 27 -88 55 -115 l27 -24 -34 -14 c-31 -13
-39 -11 -123 23 -49 20 -103 44 -120 53 l-30 16 30 11 c17 6 59 24 95 39 80
36 100 38 100 11z m-326 -41 c39 -17 85 -36 101 -44 114 -49 277 -115 287
-115 6 0 4 6 -6 13 -17 13 -16 14 12 26 40 17 52 8 52 -39 0 -67 -3 -70 -89
-70 -63 0 -87 -5 -127 -25 -46 -24 -51 -24 -84 -11 -235 99 -350 150 -350 155
0 4 19 42 41 84 47 86 30 83 163 26z m-226 -98 c1 -1 2 -9 2 -20 0 -11 -10
-22 -22 -26 -19 -6 -20 -8 -6 -12 9 -2 26 0 37 6 19 11 37 6 126 -34 17 -7 54
-23 84 -36 l55 -23 -50 -23 c-45 -21 -63 -23 -216 -23 -140 0 -171 3 -198 18
l-32 17 6 79 c4 44 8 82 10 85 3 5 191 -3 204 -8z m902 -65 c0 -19 3 -41 6
-50 5 -14 -8 -16 -111 -16 -117 0 -117 0 -111 23 3 12 6 32 6 44 0 21 3 21 74
16 45 -4 80 -1 92 5 33 20 44 14 44 -22z m-1432 6 c31 3 64 7 72 9 11 3 16 -7
18 -43 l3 -46 -111 1 -111 2 2 40 c3 54 5 55 40 43 16 -6 56 -8 87 -6z m-965
-76 l68 1 -3 -41 -3 -41 -92 -3 -93 -3 0 52 0 51 28 -8 c15 -5 58 -9 95 -8z
m2602 -25 c60 -27 98 -71 132 -152 17 -41 90 -218 164 -394 148 -357 155 -385
110 -459 -42 -68 -74 -76 -318 -76 -196 0 -213 1 -213 18 -1 9 -2 56 -4 105
l-4 87 177 1 c184 1 308 16 154 18 l-82 1 -10 38 c-5 20 -27 107 -47 192 -21
85 -39 148 -41 139 -2 -8 14 -89 37 -179 22 -90 40 -171 40 -181 0 -15 -9 -18
-62 -17 -86 1 -438 -12 -465 -18 -15 -3 -23 -12 -23 -25 0 -11 -7 -22 -15 -25
-19 -8 -20 -50 -1 -61 8 -4 15 -17 17 -28 3 -14 13 -21 37 -23 24 -2 32 -8 32
-23 0 -18 -9 -19 -214 -19 -214 0 -215 0 -221 23 -9 28 -44 67 -62 67 -14 0
-16 16 -7 72 l7 38 159 0 160 0 34 34 34 34 0 346 c0 373 -2 388 -52 415 -14
7 -47 14 -74 16 -27 2 -51 4 -54 4 -10 2 43 34 68 41 15 5 149 9 297 9 241 0
274 -1 310 -18z m-1338 -6 c20 -8 34 -18 30 -21 -3 -3 -89 -5 -191 -4 -217 1
-258 -7 -287 -53 -18 -30 -19 -49 -17 -385 l3 -354 33 -29 32 -29 160 0 160 0
0 -50 0 -50 -54 0 c-43 0 -60 -5 -84 -25 -16 -14 -33 -36 -36 -50 -5 -20 -13
-25 -36 -25 -28 0 -30 2 -30 39 0 36 -6 44 -69 100 -52 46 -76 61 -99 61 -17
0 -37 7 -46 15 -11 12 -40 15 -125 15 -61 0 -111 3 -111 8 0 4 38 97 85 206
47 110 83 202 80 204 -7 8 -6 12 -97 -208 l-86 -205 -46 -3 c-25 -2 -46 -8
-46 -13 0 -7 59 -10 163 -8 l162 2 3 -107 3 -106 -213 0 c-195 0 -216 2 -246
20 -67 41 -95 130 -67 213 9 26 48 116 86 200 39 83 114 244 166 357 145 314
121 299 501 300 230 0 289 -3 319 -15z m578 -10 c28 -13 26 -13 -50 -14 -76 0
-78 1 -50 14 38 17 63 17 100 0z m206 -45 c46 -25 49 -48 49 -395 0 -358 -3
-382 -58 -404 -19 -8 -190 -11 -581 -9 l-553 3 -24 28 -24 28 0 353 0 353 26
27 27 26 559 0 c364 0 566 -4 579 -10z m1074 -264 c40 -83 43 -125 10 -164
-35 -42 -45 -40 -46 6 l-2 37 -6 -40 -6 -40 -27 27 c-38 37 -37 90 2 168 17
33 34 60 39 60 5 0 22 -24 36 -54z m171 -260 c-29 -60 -62 -81 -101 -66 -19 7
-25 17 -25 40 0 40 34 72 97 92 61 20 65 9 29 -66z m-3708 -93 l-3 -158 -112
-3 c-62 -1 -113 0 -113 4 0 11 214 314 222 314 5 0 7 -71 6 -157z m3373 134
c41 -27 53 -82 23 -104 -16 -12 -16 -13 -1 -13 26 0 100 -74 95 -96 -3 -15
-10 -18 -33 -16 -17 2 -33 7 -37 10 -7 7 -85 192 -95 225 -7 23 7 22 48 -6z
m-2962 -130 c6 -8 8 -17 4 -20 -9 -10 -233 -9 -233 1 0 24 30 32 121 32 69 0
100 -4 108 -13z m11 -64 c0 -16 -7 -95 -15 -178 -8 -82 -15 -153 -15 -157 0
-5 -16 -8 -36 -8 l-36 0 7 52 c4 28 18 71 32 95 27 49 25 89 -7 118 -35 32
-112 17 -125 -25 -3 -11 -15 -20 -26 -20 -14 0 -19 7 -19 29 0 15 -3 49 -6 75
l-7 46 127 0 126 0 0 -27z m3249 -70 c0 -10 -10 -74 -23 -143 l-22 -125 -130
-2 c-123 -3 -128 -2 -109 15 65 56 89 142 61 221 -9 24 -16 45 -16 47 0 2 54
4 120 4 108 0 120 -2 119 -17z m-3324 -23 c22 -25 23 -67 0 -88 -17 -16 -17
-16 -12 6 7 32 -17 52 -64 52 -43 0 -47 5 -22 32 22 24 75 23 98 -2z m-25 -70
c0 -16 -8 -20 -57 -23 l-58 -3 63 -2 c55 -2 62 -4 62 -22 0 -18 -7 -20 -62
-21 l-63 -2 52 -6 c58 -7 68 -13 60 -36 -5 -10 -22 -15 -59 -17 l-53 -1 50 -6
c35 -4 50 -10 50 -21 0 -12 -19 -16 -97 -18 l-98 -3 0 101 0 100 105 0 c97 0
105 -1 105 -20z m1688 -32 l3 -48 -199 0 -199 0 2 48 c1 26 3 48 4 50 0 1 88
1 194 0 l192 -3 3 -47z m105 22 c-7 -64 -11 -70 -53 -70 l-40 0 0 51 0 50 48
-3 c43 -3 47 -5 45 -28z m757 -70 l0 -101 -112 3 c-93 2 -113 6 -113 18 0 12
18 16 80 20 l80 4 -115 6 c-93 4 -115 8 -115 20 0 12 22 16 115 21 l115 5
-117 2 c-125 2 -148 6 -148 28 0 17 -5 16 143 14 79 -1 117 2 117 10 0 7 -36
10 -111 9 -60 0 -113 1 -116 5 -3 3 -3 12 0 21 5 12 30 15 152 15 l145 0 0
-100z m-1633 68 c38 -43 84 -118 78 -128 -11 -17 -19 -11 -64 45 -47 59 -71
70 -27 12 25 -32 34 -67 19 -67 -5 0 -25 19 -47 42 -24 27 -32 33 -22 16 14
-25 14 -29 -2 -57 -9 -17 -20 -31 -24 -31 -5 0 -8 43 -8 95 l0 95 38 0 c27 0
44 -7 59 -22z m113 -115 c0 -19 -17 -16 -24 5 -3 9 -9 24 -12 32 -5 10 0 9 15
-4 11 -11 21 -25 21 -33z m799 11 c17 -14 31 -34 31 -45 0 -18 -12 -19 -370
-19 -358 0 -370 1 -370 19 0 11 14 31 31 45 l31 26 308 0 308 0 31 -26z m-931
-36 c10 -10 17 -10 33 0 16 10 24 10 34 2 8 -7 23 -9 33 -6 13 4 22 1 26 -9 5
-13 -8 -15 -85 -15 -87 0 -89 1 -79 20 12 23 21 25 38 8z"/>
<path d="M2098 2983 c12 -2 32 -2 45 0 12 2 2 4 -23 4 -25 0 -35 -2 -22 -4z"/>
<path d="M2303 2983 c4 -3 23 -6 42 -6 19 0 38 3 42 6 3 4 -15 7 -42 7 -27 0
-45 -3 -42 -7z"/>
<path d="M2262 2894 c-2 -92 -17 -118 -48 -87 -11 12 -16 13 -13 4 9 -27 37
-37 54 -20 13 12 15 33 12 100 l-3 84 -2 -81z"/>
<path d="M2117 2913 c-12 -11 -8 -23 8 -23 8 0 15 7 15 15 0 16 -12 20 -23 8z"/>
<path d="M2327 2913 c-12 -11 -8 -23 8 -23 8 0 15 7 15 15 0 16 -12 20 -23 8z"/>
<path d="M2198 2703 c17 -2 47 -2 65 0 17 2 3 4 -33 4 -36 0 -50 -2 -32 -4z"/>
<path d="M2873 2743 l37 -4 0 -79 c0 -88 12 -111 58 -109 l27 2 -25 4 c-40 7
-50 30 -50 115 l0 78 -42 -2 -43 -1 38 -4z"/>
<path d="M3078 2743 c12 -2 32 -2 45 0 12 2 2 4 -23 4 -25 0 -35 -2 -22 -4z"/>
<path d="M2845 2681 c-3 -5 -1 -12 5 -16 12 -7 30 2 30 16 0 12 -27 12 -35 0z"/>
<path d="M3062 2678 c6 -18 28 -21 28 -4 0 9 -7 16 -16 16 -9 0 -14 -5 -12
-12z"/>
<path d="M2033 1963 c15 -2 37 -2 50 0 12 2 0 4 -28 4 -27 0 -38 -2 -22 -4z"/>
<path d="M2283 1963 c15 -2 37 -2 50 0 12 2 0 4 -28 4 -27 0 -38 -2 -22 -4z"/>
<path d="M2212 1869 c-2 -99 -17 -126 -52 -94 -11 10 -20 14 -20 9 0 -16 22
-34 41 -34 32 0 40 25 36 117 l-3 88 -2 -86z"/>
<path d="M2044 1889 c-10 -17 13 -36 27 -22 12 12 4 33 -11 33 -5 0 -12 -5
-16 -11z"/>
<path d="M2284 1889 c-10 -17 13 -36 27 -22 12 12 4 33 -11 33 -5 0 -12 -5
-16 -11z"/>
<path d="M2123 1678 c25 -13 117 -14 117 0 0 4 -29 7 -65 7 -35 0 -59 -3 -52
-7z"/>
<path d="M3330 1983 c0 -5 18 -8 40 -8 22 0 40 3 40 8 0 4 -18 7 -40 7 -22 0
-40 -3 -40 -7z"/>
<path d="M3580 1983 c0 -5 20 -8 44 -8 25 0 42 3 40 7 -7 10 -84 10 -84 1z"/>
<path d="M3464 1865 l1 -100 30 0 c22 0 31 5 33 20 4 20 3 20 -11 1 -8 -12
-21 -17 -30 -13 -13 5 -17 25 -20 99 l-3 93 0 -100z"/>
<path d="M3360 1891 c0 -12 6 -21 16 -21 9 0 14 7 12 17 -5 25 -28 28 -28 4z"/>
<path d="M3606 1903 c-12 -12 -6 -33 9 -33 8 0 15 6 15 14 0 17 -14 28 -24 19z"/>
<path d="M3452 1688 c3 -7 16 -19 30 -26 29 -14 72 -1 82 24 4 11 -8 14 -55
14 -44 0 -60 -3 -57 -12z m83 -8 c-3 -5 -17 -10 -30 -10 -13 0 -27 5 -30 10
-4 6 8 10 30 10 22 0 34 -4 30 -10z"/>
<path d="M1172 1578 c16 -10 59 -10 75 0 6 4 -11 7 -38 8 -29 0 -44 -3 -37 -8z"/>
<path d="M1120 1780 c-12 -8 -10 -10 8 -10 13 0 20 4 17 10 -7 12 -6 12 -25 0z"/>
<path d="M1324 1779 c-3 -5 7 -9 22 -9 15 0 24 3 20 7 -11 11 -35 12 -42 2z"/>
<path d="M2625 1065 c-29 -28 -31 -54 -10 -94 25 -49 90 -57 130 -16 52 51 15
135 -60 135 -25 0 -44 -8 -60 -25z m114 -11 c12 -15 21 -34 21 -44 0 -33 -39
-70 -74 -70 -60 0 -93 66 -56 113 29 37 80 37 109 1z"/>
<path d="M3003 3263 c15 -2 39 -2 55 0 15 2 2 4 -28 4 -30 0 -43 -2 -27 -4z"/>
<path d="M3143 3263 c26 -2 68 -2 95 0 26 2 4 3 -48 3 -52 0 -74 -1 -47 -3z"/>
<path d="M3060 3200 l-25 -8 28 -1 c15 -1 27 4 27 9 0 6 -1 10 -2 9 -2 -1 -14
-5 -28 -9z"/>
<path d="M3124 3198 c-3 -4 4 -8 15 -8 12 0 21 4 21 8 0 5 -7 9 -15 9 -9 0
-18 -4 -21 -9z"/>
<path d="M3190 3198 c0 -4 21 -8 48 -7 52 1 48 6 -10 11 -21 2 -38 0 -38 -4z"/>
<path d="M1680 3051 c0 -56 -4 -103 -10 -106 -6 -4 -10 25 -10 79 l0 86 -35 0
-35 0 0 -86 c0 -54 -4 -83 -10 -79 -5 3 -10 35 -10 71 l0 65 -32 -3 -33 -3 0
-63 c0 -34 -3 -62 -7 -62 -5 0 -8 -4 -8 -10 0 -6 55 -10 145 -10 90 0 145 4
145 10 0 6 -6 9 -12 8 -10 -2 -14 24 -16 100 l-3 102 -34 0 -35 0 0 -99z m60
-6 c0 -78 -3 -95 -15 -95 -8 0 -18 -1 -22 -2 -5 -2 -8 171 -4 190 1 1 10 2 21
2 19 0 20 -7 20 -95z m-92 -22 c-2 -61 -6 -78 -18 -78 -23 -1 -25 8 -22 84 3
63 6 71 23 71 18 0 20 -6 17 -77z m-88 -16 c0 -58 -4 -68 -26 -60 -10 3 -14
22 -14 59 0 47 2 54 20 54 18 0 20 -7 20 -53z"/>
<path d="M3073 3133 c9 -2 25 -2 35 0 9 3 1 5 -18 5 -19 0 -27 -2 -17 -5z"/>
<path d="M3178 3133 c17 -2 47 -2 65 0 17 2 3 4 -33 4 -36 0 -50 -2 -32 -4z"/>
<path d="M3413 3004 c-27 -29 -28 -34 -8 -34 9 0 19 -10 24 -22 l8 -22 12 22
c6 12 18 22 26 22 8 0 15 5 15 10 0 6 -7 10 -16 10 -9 0 -18 9 -21 20 -7 25
-12 24 -40 -6z m34 -30 c-9 -9 -28 6 -21 18 4 6 10 6 17 -1 6 -6 8 -13 4 -17z"/>
<path d="M1310 2934 c0 -27 -82 -123 -111 -129 -30 -7 -105 10 -114 25 -10 16
-35 11 -43 -8 -16 -40 -68 -112 -85 -118 -24 -8 -17 -39 8 -39 14 0 21 8 23
24 5 34 52 101 78 111 25 10 102 -6 125 -26 27 -24 46 -15 40 19 -2 14 91 117
105 117 8 0 14 9 14 20 0 13 -7 20 -20 20 -12 0 -20 -7 -20 -16z m30 -4 c0 -5
-4 -10 -10 -10 -5 0 -10 5 -10 10 0 6 5 10 10 10 6 0 10 -4 10 -10z m-270
-110 c0 -5 -4 -10 -10 -10 -5 0 -10 5 -10 10 0 6 5 10 10 10 6 0 10 -4 10 -10z
m146 -47 c-10 -10 -19 5 -10 18 6 11 8 11 12 0 2 -7 1 -15 -2 -18z m-236 -87
c0 -11 -19 -15 -25 -6 -3 5 1 10 9 10 9 0 16 -2 16 -4z"/>
<path d="M4058 2852 c-22 -14 -28 -24 -28 -54 0 -30 6 -40 32 -56 29 -19 33
-19 65 -4 30 14 33 20 33 59 0 37 -4 44 -30 58 -35 18 -37 18 -72 -3z m70 -29
c-8 -10 -22 -13 -42 -9 -28 5 -29 4 -13 -8 9 -7 17 -26 17 -41 0 -26 -1 -27
-22 -13 -32 21 -33 50 -4 81 22 24 28 26 50 15 21 -9 24 -14 14 -25z m22 -36
c0 -16 -9 -28 -25 -35 -23 -11 -25 -9 -25 11 0 25 17 47 37 47 7 0 13 -11 13
-23z"/>
<path d="M3624 2827 c-3 -8 -4 -39 -2 -68 l3 -54 36 -3 c21 -2 45 -12 54 -23
22 -23 33 -24 31 -2 0 10 9 19 24 23 23 6 25 10 25 70 l0 65 -83 3 c-64 2 -84
0 -88 -11z m161 -57 c0 -50 -2 -55 -23 -58 -13 -2 -26 -10 -29 -18 -5 -13 -7
-13 -22 0 -9 8 -29 16 -46 18 -28 3 -30 6 -33 47 -5 70 -2 72 80 69 l73 -3 0
-55z"/>
<path d="M3683 2783 c15 -2 39 -2 55 0 15 2 2 4 -28 4 -30 0 -43 -2 -27 -4z"/>
<path d="M3678 2743 c12 -2 30 -2 40 0 9 3 -1 5 -23 4 -22 0 -30 -2 -17 -4z"/>
<path d="M2588 2767 c-15 -12 -28 -29 -29 -37 -5 -45 2 -61 35 -77 33 -15 35
-15 65 6 24 17 31 30 31 56 0 27 -6 37 -36 54 -19 12 -36 21 -37 21 -1 0 -14
-10 -29 -23z m30 -28 c-2 -12 -13 -28 -25 -37 -22 -14 -23 -13 -23 16 0 29 10
40 38 41 8 1 12 -7 10 -20z m38 13 c11 -6 18 -34 15 -55 -3 -19 -41 16 -41 38
0 26 7 30 26 17z m-12 -58 c22 -8 20 -21 -4 -34 -26 -14 -65 7 -48 27 11 14
28 16 52 7z"/>
<path d="M1422 2769 c-100 -30 -155 -170 -101 -258 27 -44 38 -55 79 -76 115
-60 261 31 260 163 -1 119 -123 206 -238 171z m139 -25 c14 -7 31 -20 38 -28
11 -13 9 -17 -14 -26 -15 -6 -32 -9 -39 -8 -21 4 -56 -13 -56 -28 0 -8 -4 -14
-9 -14 -15 0 -22 -32 -11 -45 8 -10 6 -15 -10 -20 -27 -8 -22 -37 8 -50 12 -5
22 -17 22 -26 0 -23 28 -45 41 -32 6 6 11 17 12 24 2 8 6 20 11 27 4 7 2 19
-5 28 -10 13 -10 17 2 25 19 12 25 11 39 -6 7 -9 21 -13 31 -10 48 15 -7 -77
-62 -105 -37 -20 -102 -26 -133 -14 -11 4 -16 19 -16 45 0 34 -4 40 -35 55
-38 18 -44 29 -19 38 9 3 14 13 10 21 -3 8 3 19 12 25 16 9 16 11 0 24 -18 13
-25 36 -11 36 3 0 14 -7 24 -15 15 -14 18 -14 33 0 14 15 14 18 0 40 -9 14
-22 21 -30 18 -8 -3 -14 -1 -14 5 0 10 38 27 75 35 27 5 74 -3 106 -19z m-146
-51 c7 -21 -2 -30 -17 -15 -7 7 -20 12 -30 12 -17 0 -24 11 -13 22 10 10 54
-4 60 -19z m221 -38 c7 -19 14 -46 14 -60 0 -20 -5 -25 -24 -25 -14 0 -28 5
-31 10 -3 6 -17 10 -30 10 -19 0 -23 4 -18 17 5 13 2 15 -15 11 -17 -5 -20 -2
-19 20 2 23 8 28 40 33 20 3 40 9 44 12 13 14 24 6 39 -28z m-296 5 c0 -5 -4
-10 -10 -10 -5 0 -10 5 -10 10 0 6 5 10 10 10 6 0 10 -4 10 -10z m8 -58 c2
-12 -1 -22 -7 -22 -26 0 -9 -39 24 -54 26 -13 35 -23 35 -41 0 -70 -79 21 -88
101 -4 41 -3 46 14 42 11 -2 20 -13 22 -26z m152 18 c0 -5 -4 -10 -10 -10 -5
0 -10 5 -10 10 0 6 5 10 10 10 6 0 10 -4 10 -10z m34 -36 c5 -12 2 -15 -10
-10 -8 3 -20 6 -25 6 -5 0 -9 5 -9 10 0 16 37 11 44 -6z m-2 -37 c8 -13 0 -57
-13 -71 -5 -6 -11 3 -15 21 -4 19 -14 33 -25 36 -10 3 -19 13 -19 22 0 14 6
16 32 11 18 -3 35 -12 40 -19z"/>
<path d="M1820 2706 c0 -10 -9 -20 -20 -23 -25 -7 -25 -7 5 -37 24 -24 25 -24
35 -5 6 10 17 19 25 19 8 0 15 5 15 10 0 6 -6 10 -14 10 -8 0 -22 10 -30 22
-14 20 -16 20 -16 4z m15 -46 c-5 -8 -11 -8 -17 -2 -6 6 -7 16 -3 22 5 8 11 8
17 2 6 -6 7 -16 3 -22z"/>
<path d="M3442 2668 c-8 -8 -12 -45 -12 -100 l0 -88 40 -6 c36 -6 40 -10 40
-35 0 -37 6 -36 46 2 27 26 41 32 81 33 l48 1 3 94 c2 69 -1 97 -10 103 -21
13 -222 10 -236 -4z m238 -93 l0 -85 -44 0 c-33 0 -52 -7 -74 -25 -17 -14 -33
-25 -36 -25 -3 0 -6 11 -6 25 0 23 -4 25 -40 25 l-40 0 0 85 0 85 120 0 120 0
0 -85z"/>
<path d="M3523 2613 c20 -2 54 -2 75 0 20 2 3 4 -38 4 -41 0 -58 -2 -37 -4z"/>
<path d="M3490 2570 c0 -6 30 -10 70 -10 40 0 70 4 70 10 0 6 -30 10 -70 10
-40 0 -70 -4 -70 -10z"/>
<path d="M3508 2523 c12 -2 32 -2 45 0 12 2 2 4 -23 4 -25 0 -35 -2 -22 -4z"/>
<path d="M652 2608 c-15 -15 -15 -61 0 -76 7 -7 24 -12 38 -12 33 0 50 17 50
50 0 33 -17 50 -50 50 -14 0 -31 -5 -38 -12z m68 -13 c26 -32 -13 -81 -47 -59
-35 22 -23 74 17 74 10 0 23 -7 30 -15z"/>
<path d="M674 2579 c-10 -17 13 -36 27 -22 12 12 4 33 -11 33 -5 0 -12 -5 -16
-11z"/>
<path d="M3853 2534 c-17 -9 -39 -31 -48 -50 -48 -101 86 -194 166 -115 80 81
-16 217 -118 165z m119 -37 c28 -35 23 -84 -11 -118 -37 -37 -79 -38 -120 -3
-52 43 -40 123 21 149 39 16 86 4 110 -28z"/>
<path d="M3875 2464 c-9 -9 -14 -21 -12 -27 6 -18 33 -31 51 -24 21 8 21 53 0
61 -21 8 -20 8 -39 -10z m45 -19 c0 -19 -20 -29 -32 -17 -15 15 -2 43 17 36 8
-3 15 -12 15 -19z"/>
<path d="M764 2416 c-3 -7 -4 -33 -2 -57 l3 -44 207 -3 208 -2 40 26 c22 15
40 28 40 30 0 2 -19 17 -42 34 l-41 30 -204 0 c-164 0 -205 -3 -209 -14z m36
-52 c0 -32 -4 -44 -12 -42 -14 5 -23 61 -14 85 11 27 26 2 26 -43z m368 44
c-4 -10 -51 -14 -181 -16 -153 -2 -177 0 -177 13 0 13 26 15 181 15 140 0 180
-3 177 -12z m37 -43 c0 -16 -6 -30 -12 -32 -9 -3 -13 7 -13 32 0 25 4 35 13
33 6 -3 12 -17 12 -33z m-35 5 c0 -6 -67 -10 -180 -10 -113 0 -180 4 -180 10
0 6 67 10 180 10 113 0 180 -4 180 -10z m65 0 c3 -5 1 -10 -4 -10 -6 0 -11 5
-11 10 0 6 2 10 4 10 3 0 8 -4 11 -10z m-67 -37 c3 -10 -37 -13 -177 -13 -155
0 -181 2 -181 15 0 13 25 15 177 13 130 -2 177 -6 181 -15z"/>
<path d="M4290 2367 c0 -26 4 -47 9 -47 10 0 7 77 -3 87 -3 3 -6 -15 -6 -40z"/>
<path d="M600 2340 c0 -13 7 -20 20 -20 13 0 20 7 20 20 0 13 -7 20 -20 20
-13 0 -20 -7 -20 -20z m30 0 c0 -5 -4 -10 -10 -10 -5 0 -10 5 -10 10 0 6 5 10
10 10 6 0 10 -4 10 -10z"/>
<path d="M4212 2335 c0 -16 2 -22 5 -12 2 9 2 23 0 30 -3 6 -5 -1 -5 -18z"/>
<path d="M4122 2310 c0 -19 2 -27 5 -17 2 9 2 25 0 35 -3 9 -5 1 -5 -18z"/>
<path d="M600 2272 c0 -24 8 -32 26 -25 22 8 17 43 -6 43 -13 0 -20 -7 -20
-18z m30 -2 c0 -5 -4 -10 -10 -10 -5 0 -10 5 -10 10 0 6 5 10 10 10 6 0 10 -4
10 -10z"/>
<path d="M4290 2218 c0 -39 3 -68 7 -65 9 10 10 137 1 137 -5 0 -8 -32 -8 -72z"/>
<path d="M4123 2210 c0 -30 2 -43 4 -27 2 15 2 39 0 55 -2 15 -4 2 -4 -28z"/>
<path d="M3944 2215 c-20 -21 -20 -23 -2 -34 10 -6 18 -18 18 -26 0 -8 5 -15
10 -15 6 0 10 7 10 15 0 8 10 20 22 26 l23 12 -23 10 c-12 6 -22 16 -22 24 0
18 -11 15 -36 -12z m41 -14 c7 -12 -12 -24 -25 -16 -11 7 -4 25 10 25 5 0 11
-4 15 -9z"/>
<path d="M4213 2190 c0 -25 2 -35 4 -22 2 12 2 32 0 45 -2 12 -4 2 -4 -23z"/>
<path d="M602 2198 c2 -13 10 -23 18 -23 8 0 16 10 18 23 3 17 -2 22 -18 22
-16 0 -21 -5 -18 -22z m28 2 c0 -5 -4 -10 -10 -10 -5 0 -10 5 -10 10 0 6 5 10
10 10 6 0 10 -4 10 -10z"/>
<path d="M433 2008 c-2 -5 19 -8 48 -8 29 0 49 3 46 6 -9 10 -88 10 -94 2z"/>
<path d="M593 2003 c26 -2 67 -2 90 0 23 2 2 3 -48 3 -49 0 -68 -1 -42 -3z"/>
<path d="M4082 1979 c-12 -12 -39 -23 -68 -27 l-49 -7 -3 -190 c-2 -170 -1
-191 15 -202 21 -16 285 -18 314 -3 18 10 19 23 19 193 0 200 -2 207 -56 207
-20 0 -44 10 -62 25 -37 31 -84 33 -110 4z m86 -6 c2 -9 -9 -13 -37 -13 -39 0
-50 8 -34 24 11 11 66 2 71 -11z m50 -40 c3 -10 -19 -13 -87 -13 -77 0 -90 2
-84 15 4 13 21 15 86 13 53 -2 82 -7 85 -15z m-201 -7 c-16 -12 -17 -30 -15
-177 l3 -164 130 0 130 0 3 168 c2 167 1 173 -30 168 -5 0 -8 4 -8 9 0 15 57
12 63 -3 8 -20 9 -331 1 -350 -5 -15 -25 -17 -165 -17 l-159 0 0 183 c0 101 3
187 7 190 3 4 18 7 32 7 24 -1 25 -2 8 -14z m238 -38 c3 -13 4 -84 2 -158 l-4
-134 -119 -1 -119 0 -3 158 -3 157 121 0 c116 0 120 -1 125 -22z"/>
<path d="M4040 1835 c0 -8 7 -15 15 -15 8 0 15 7 15 15 0 8 -7 15 -15 15 -8 0
-15 -7 -15 -15z"/>
<path d="M4123 1833 c20 -2 54 -2 75 0 20 2 3 4 -38 4 -41 0 -58 -2 -37 -4z"/>
<path d="M4037 1794 c-9 -10 2 -24 19 -24 8 0 14 7 14 15 0 15 -21 21 -33 9z"/>
<path d="M4123 1783 c20 -2 54 -2 75 0 20 2 3 4 -38 4 -41 0 -58 -2 -37 -4z"/>
<path d="M4042 1741 c-10 -6 -10 -10 2 -20 10 -9 16 -9 21 -1 10 16 -7 31 -23
21z"/>
<path d="M4090 1732 c0 -9 128 -7 137 2 4 3 -26 6 -65 6 -40 0 -72 -4 -72 -8z"/>
<path d="M4037 1684 c-9 -10 2 -24 19 -24 8 0 14 7 14 15 0 15 -21 21 -33 9z"/>
<path d="M4113 1673 c15 -2 39 -2 55 0 15 2 2 4 -28 4 -30 0 -43 -2 -27 -4z"/>
<path d="M493 1933 c9 -2 25 -2 35 0 9 3 1 5 -18 5 -19 0 -27 -2 -17 -5z"/>
<path d="M578 1933 c6 -2 18 -2 25 0 6 3 1 5 -13 5 -14 0 -19 -2 -12 -5z"/>
<path d="M663 1933 c15 -2 37 -2 50 0 12 2 0 4 -28 4 -27 0 -38 -2 -22 -4z"/>
<path d="M523 1863 c9 -2 25 -2 35 0 9 3 1 5 -18 5 -19 0 -27 -2 -17 -5z"/>
<path d="M628 1863 c17 -2 47 -2 65 0 17 2 3 4 -33 4 -36 0 -50 -2 -32 -4z"/>
<path d="M444 1711 c-45 -20 -88 -70 -99 -113 -4 -15 -13 -28 -21 -30 -13 -3
-13 -6 0 -23 14 -19 16 -19 33 -2 12 12 13 17 4 17 -19 0 -5 47 26 89 50 66
149 88 229 52 40 -18 94 -76 94 -99 0 -7 4 -12 10 -12 13 0 2 29 -26 66 -50
68 -165 93 -250 55z"/>
<path d="M512 1668 c-7 -7 -12 -20 -12 -30 0 -22 -13 -23 -30 -3 -9 11 -17 12
-31 4 -20 -10 -27 -49 -9 -49 6 0 10 -7 10 -15 0 -9 -10 -15 -26 -15 -22 0
-25 -4 -22 -27 2 -20 9 -29 26 -31 23 -4 29 -16 12 -27 -17 -10 -11 -44 9 -54
14 -8 22 -7 31 4 17 21 28 19 32 -6 4 -31 32 -46 52 -30 9 8 16 22 16 32 0 23
8 24 30 4 14 -13 19 -13 36 -1 16 13 17 18 7 35 -18 30 -16 39 10 43 16 2 22
10 22 28 0 18 -6 26 -22 28 -26 4 -28 13 -10 43 10 17 9 22 -7 35 -17 12 -23
12 -43 -1 -21 -14 -23 -14 -23 3 0 20 -18 42 -35 42 -6 0 -16 -5 -23 -12z m38
-27 c0 -28 18 -36 46 -20 35 18 55 -2 30 -30 -22 -24 -13 -41 20 -41 19 0 25
-5 22 -17 -2 -10 -12 -19 -23 -21 -33 -6 -40 -20 -20 -42 26 -29 6 -49 -29
-31 -28 16 -46 8 -46 -20 0 -10 -7 -19 -15 -19 -8 0 -15 6 -15 13 0 6 -4 19
-10 27 -7 12 -12 12 -35 0 -35 -19 -57 1 -31 29 22 24 13 41 -20 41 -17 0 -24
5 -24 20 0 15 7 20 24 20 33 0 42 17 20 41 -25 28 -5 48 31 29 27 -15 35 -12
40 17 2 10 4 19 4 21 1 1 8 2 16 2 8 0 15 -9 15 -19z"/>
<path d="M494 1555 c-15 -23 -15 -27 0 -50 29 -44 86 -28 86 25 0 53 -57 69
-86 25z m64 3 c17 -17 15 -43 -4 -59 -31 -26 -70 25 -44 56 15 18 32 19 48 3z"/>
<path d="M4420 1550 c0 -13 7 -20 18 -20 24 0 32 8 25 26 -8 22 -43 17 -43 -6z
m30 0 c0 -5 -4 -10 -10 -10 -5 0 -10 5 -10 10 0 6 5 10 10 10 6 0 10 -4 10
-10z"/>
<path d="M711 1516 c-9 -11 -9 -15 1 -18 16 -6 -15 -78 -46 -107 -54 -51 -142
-64 -211 -32 -43 19 -95 73 -95 97 0 8 -4 14 -10 14 -13 0 -2 -29 26 -66 57
-78 188 -97 274 -40 30 19 49 43 67 82 13 30 29 51 35 48 6 -4 5 2 -1 15 -14
25 -24 26 -40 7z"/>
<path d="M4420 1481 c0 -22 23 -34 38 -19 15 15 3 38 -19 38 -12 0 -19 -7 -19
-19z m30 -1 c0 -5 -4 -10 -10 -10 -5 0 -10 5 -10 10 0 6 5 10 10 10 6 0 10 -4
10 -10z"/>
<path d="M4118 1443 c-67 -43 -63 -141 8 -179 101 -55 202 82 121 164 -31 31
-93 38 -129 15z m114 -22 c26 -23 32 -36 31 -66 -3 -94 -126 -126 -168 -44
-18 34 -18 57 -1 88 30 55 90 65 138 22z"/>
<path d="M4151 1376 c-17 -20 -4 -56 18 -56 28 0 47 28 34 48 -14 23 -37 26
-52 8z m36 -12 c8 -21 -13 -42 -28 -27 -13 13 -5 43 11 43 6 0 13 -7 17 -16z"/>
<path d="M4423 1414 c-3 -8 -1 -20 5 -26 15 -15 43 8 35 28 -7 19 -32 18 -40
-2z m27 -4 c0 -5 -4 -10 -10 -10 -5 0 -10 5 -10 10 0 6 5 10 10 10 6 0 10 -4
10 -10z"/>
<path d="M425 1195 c-30 -30 -31 -54 -4 -89 29 -36 80 -36 109 1 55 70 -42
151 -105 88z m83 -1 c29 -20 31 -79 3 -94 -47 -25 -91 0 -91 50 0 28 30 60 55
60 6 0 21 -7 33 -16z"/>
<path d="M454 1155 c-4 -10 -1 -21 7 -26 20 -12 34 -5 34 17 0 24 -33 31 -41
9z m27 -8 c-1 -12 -15 -9 -19 4 -3 6 1 10 8 8 6 -3 11 -8 11 -12z"/>
<path d="M273 932 c8 -17 8 -29 -1 -43 -13 -20 -6 -24 17 -10 8 5 24 6 35 1
19 -7 21 -4 21 34 l0 41 -41 0 c-40 0 -41 0 -31 -23z m57 -17 c0 -8 -9 -15
-20 -15 -11 0 -20 7 -20 15 0 8 9 15 20 15 11 0 20 -7 20 -15z"/>
</g>
</svg>
